<svg id="stat-victory-color" xmlns="http://www.w3.org/2000/svg" width="60" height="60" viewBox="0 0 60 60">
  <defs>
    <style>
      .cls-1 {
        fill: #fff;
      }

      .cls-1, .cls-2, .cls-3, .cls-4 {
        fill-rule: evenodd;
      }

      .cls-2 {
        fill: #2d899d;
      }

      .cls-3 {
        fill: #20d7e7;
      }

      .cls-4 {
        fill: #fa4c6d;
      }
    </style>
  </defs>
  <path id="ribbon-red" class="cls-1" d="M12.576,14.1c3.89,8,12.117,17.9,12.117,17.9h8.063L18.646,6a36.249,36.249,0,0,0-4.871,3C12.145,10.483,11.372,11.621,12.576,14.1Zm34.857,0c-3.809,8-11.822,17.9-11.822,17.9l-3.863-8L41.532,6a26.6,26.6,0,0,1,4.749,3C47.844,10.494,48.613,11.621,47.433,14.1Z"/>
  <path id="medalattach" class="cls-2" d="M30.236,36a11.74,11.74,0,0,0-6.576,1.956,2.468,2.468,0,0,1-.479-1.456A2.51,2.51,0,0,1,25.7,34h9.071a2.51,2.51,0,0,1,2.52,2.5,2.467,2.467,0,0,1-.479,1.456A11.739,11.739,0,0,0,30.236,36Z"/>
  <path id="Ellipse_61_copy" data-name="Ellipse 61 copy" class="cls-3" d="M30.236,38A8.3,8.3,0,0,1,38.8,46a8.3,8.3,0,0,1-8.567,8,8.3,8.3,0,0,1-8.567-8A8.3,8.3,0,0,1,30.236,38ZM35.6,45.921l-2.015,1.455a0.351,0.351,0,0,0-.036.278l0.462,2.373a3.173,3.173,0,0,1,.167,1.067,0.874,0.874,0,0,1-.81.91,1.331,1.331,0,0,1-.572-0.159l-2.322-2.182a0.353,0.353,0,0,0-.469,0l-2.322,2.182a1.331,1.331,0,0,1-.572.159,0.874,0.874,0,0,1-.81-0.91,3.17,3.17,0,0,1,.167-1.067l0.462-2.373a0.351,0.351,0,0,0-.036-0.278l-2.015-1.455a0.967,0.967,0,0,1-.185-0.68,1.009,1.009,0,0,1,.217-0.539,0.951,0.951,0,0,1,.578-0.3l2.606-.4a0.4,0.4,0,0,0,.291-0.173l1.1-2.283a0.8,0.8,0,0,1,1.51,0l1.1,2.283a0.4,0.4,0,0,0,.291.173l2.606,0.4a0.951,0.951,0,0,1,.578.3,1.008,1.008,0,0,1,.217.539A0.968,0.968,0,0,1,35.6,45.921Z"/>
  <path class="cls-4" d="M24.693,10l5.039,9H30.74l5.039-9H24.693Z"/>
</svg>
