<svg id="Gameplay_Callouts" data-name="Gameplay Callouts" xmlns="http://www.w3.org/2000/svg" width="64" height="64" viewBox="0 0 64 64">
  <defs>
    <style>
      .cls-1 {
        fill: #fff;
      }

      .cls-1, .cls-2, .cls-3, .cls-4 {
        fill-rule: evenodd;
      }

      .cls-2 {
        fill: #2d899d;
      }

      .cls-3 {
        fill: #265764;
      }

      .cls-4 {
        fill: #166273;
      }
    </style>
  </defs>
  <path id="Assistance" class="cls-1" d="M-1041.24,234.543s-5.68,2.862-7.58,4.664a14.351,14.351,0,0,0-2.53,3.816,9.878,9.878,0,0,1-4.63,5.087,17.762,17.762,0,0,1-6.73,2.12l4.21,0.424s1.58,2.438-2.95,2.544c0,0-6.63.636-9.26-.424a1.213,1.213,0,0,1,.84-2.12l3.37-.848-0.84-.424s-5.06,0-8-2.968c0,0-3.37-.742-2.95-13.567l-3.41-13.136s-1.27-3.54,1.15-4.812a3.442,3.442,0,0,1,4.91,2.088l3.69,12.526s0.06,0.013.14,0.024a13.024,13.024,0,0,0-2.65,1.536l-1.05,1.064a51.38,51.38,0,0,1,8.51-1.572l8.19-.557v-1.064s-1.24-.2-2.89-0.378l2.87-15.253s2.46-3.013,4.88-2.589a4.242,4.242,0,0,1,2.05,5.428l-1.97,10.76a28.9,28.9,0,0,0-.42,5.088s-8.42,2.861-9.26,8.055c0,0,1.89-5.088,10.1-5.512a16.283,16.283,0,0,0,2.53,0s-1.69-.742.1-1.7c0,0,6.11-4.027,9.16-2.119C-1041.66,230.728-1038.29,232.211-1041.24,234.543Zm-25.92-6.193a13.427,13.427,0,0,0-3.63.782,0.889,0.889,0,0,0,.06-0.454l-0.81-16.7c0.16,0,1.18-2.568,3.27-2.8,0.74,0.083,3.81-.352,4.5,2.8l0.4,16.439A27.719,27.719,0,0,0-1067.16,228.35Zm-1.55,26.362h8.19a1.024,1.024,0,0,1,1.03,1.019v2.039a1.025,1.025,0,0,1-1.03,1.02s-0.85,1.019-4.1,1.019c-3.58,0-4.09-1.019-4.09-1.019a1.025,1.025,0,0,1-1.03-1.02v-2.039A1.024,1.024,0,0,1-1068.71,254.712Z"/>
  <path id="Pose" class="cls-1" d="M-1050.84,25.429c-2.49,4.948-4.97,14.256-4.97,14.256h-13.57c-1.97-3.917-2.9-14.256-2.9-14.256-0.82-7.319,4.72-7.422,4.72-7.422,2.9-.722,2.9,3.3,2.9,3.3-0.31,3.092.83,14.906,0.83,14.906-0.11.928-2.07,0.825-2.07,0.825l-0.42,1.412h6.21l-0.42-1.412a4.207,4.207,0,0,1-1.24-.412c-0.72-.1-0.41-0.237-0.41-0.237a122.04,122.04,0,0,1,3.31-12.607c2.17-5.773,6.78-4.123,6.78-4.123C-1048.36,20.481-1050.84,25.429-1050.84,25.429ZM-1069.03,48.9a7.2,7.2,0,0,1-5,2c-4.4.2-5.2-1-5-7s8-3,8-3A7.344,7.344,0,0,0-1069.03,48.9Zm0.89-.147h4.07s-3.62,3.3-1.25,6.185c0,0,0-4.432,3.31-6.185a5.875,5.875,0,0,0,3.72-2.062,11.344,11.344,0,0,1-5.37.825s-5.38.309-5.79-3.711c0,0-.62-2.474,2.48-2.474h10.34s5.37,0.412,5.37,7.01c0,0,.11,7.628-8.68,10.308,0,0,5.17,1.752,0,3.3,0,0-6.82.825-7.86,0.412,0,0-2.27-.412-1.65-2.062,0,0,3.72-.1,5.79-1.237,0,0-6,.206-8.27-0.825a6.532,6.532,0,0,1-4.96-5.36l6.27-.825S-1067.53,51.327-1068.14,48.756Zm1.26,15.334,8.17-.575a1.025,1.025,0,0,1,1.1.945l0.14,2.034a1.024,1.024,0,0,1-.95,1.089s-0.78,1.077-4.02,1.3c-3.57.252-4.16-.729-4.16-0.729a1.022,1.022,0,0,1-1.09-.945l-0.14-2.034A1.018,1.018,0,0,1-1066.88,64.09Z"/>
  <path id="Roger_THat" data-name="Roger THat" class="cls-1" d="M-1045.6-40.237c-0.93.972-1.47,0-3.96,0.991,0,0-10.31,1-11.06-6.106,0,0,.25-5.695,3.02-4.045a25.342,25.342,0,0,0,10.04,0,2.723,2.723,0,0,1,3.53,2.343S-1043.1-42.848-1045.6-40.237Zm-0.94-11.206s-6.54,2.284-11.06,0c0,0-5.91-2.284-1.01-7.106,0,0-3.15-.254-4.03,4.06a12.721,12.721,0,0,0,2.01,3.045s0.39,2.157-3.01,5.076a44.242,44.242,0,0,1-5.02,4.06s4.01-.127,6.02-2.03c0,0,.76,1.015-2,2.03,0,0-3.15,3.045-2.02,6.091,0,0-.24,3.3,1.01,4.06,0,0-4.27,0-7.03-6.091,0,0-1.01,1.776,0,3.045,0,0-.51,1.65-2.02,0,0,0-5.78-4.187-4.02-13.2,0,0,.63-3.68,2.01-2.03a7.474,7.474,0,0,0,2.01,6.091s-0.62-8.375,1.01-11.166a41.582,41.582,0,0,1,5.03-7.121s2.6-3.754,2-10.151a31.221,31.221,0,0,1,0-7.106s6.53-1.142,8.03,3.045a8.148,8.148,0,0,1,.01,9.136s-1.51,4.2-1.01,5.091c0,0-1.87,1.534,2.03,1,0,0,7.43-1.239,10.57.561C-1047.03-61.048-1042.14-55.249-1046.54-51.443Zm-31.49,15.383-4,1s-4.5-3-3-10a7.893,7.893,0,0,1,4-1S-1081.28-39.058-1078.03-36.059Zm17.41-5.217a13.53,13.53,0,0,0,7.04,4.06s5.2-1.234,4.02,2.015a3.6,3.6,0,0,1-1.1,3.968c-1.04.793-3.6,1.326-5.94,1.108,0,0-10.64.181-8.04-8.105C-1064.64-38.231-1063.26-43.814-1060.62-41.276Z"/>
  <path id="This_way" data-name="This way" class="cls-1" d="M-1066.51,131.726s3.91,2.09,11.43,1.277c0,0,10.25-1.335,12.69.464,0,0,4.02,2.032,3.26,6.036,0,0-.23,1.915-4.42,1.045,0,0-11.42-.813-16.43,1.625,0,0-.52.986,0.82,0.7a13.606,13.606,0,0,0,5.83.488s2.44,4.974-2.92,6.36a14.857,14.857,0,0,1-4.54.789s-0.35,1.706.35,1.532a3.923,3.923,0,0,0,3.26-.464s-0.29,8.183-14.91,4.179c0,0-9.73-3.192-10.37-9.634,0,0-1.34-8.647,2.33-12.768,0,0,4.08-4.062,5.01-4.875,0,0,2.21-1.973,2.56-3.6,0,0,1.75-4.7,2.57-7.312,0,0,.93-1.393,2.91-0.232,0,0,7.04,3.54,1.51,10.214l-1.52,3.134S-1067.56,131.2-1066.51,131.726Zm-12.57,15.321a43.536,43.536,0,0,0,5.71,2.09,0.754,0.754,0,0,1,.46,1.044s-0.11,1.649-1.51,1.184a41.907,41.907,0,0,1-5.48-3.157s-0.93-.464-0.46-1.161C-1080.36,147.047-1080.25,146.235-1079.08,147.047Zm-0.12-6.267s4.78,1.184,5.94,1.068a4.425,4.425,0,0,0,.7-1.765s-0.06-.638-1.05-0.58c0,0-4.13-.116-5.59-0.232a0.808,0.808,0,0,0-1.05.58A0.894,0.894,0,0,0-1079.2,140.78Zm0.12,2.553s5.59,1.219,8.04,1.393a0.93,0.93,0,0,1,1.05.929s0.05,1.764-1.52,1.532c0,0-5.88-1.649-8.04-2.461a0.852,0.852,0,0,1-.81-0.929S-1080.36,143.043-1079.08,143.333Zm-3.6-9.146s-4.18,5.365-.48,15.066c0,0-3.78,1.218-3.84-7.545C-1087,141.708-1087.46,132.446-1082.68,134.187Z"/>
  <path id="Pointer" class="cls-1" d="M-1070.66-140.951s0.51,0.465,1.03-.583c0,0,2.04-3.91,1.25-11.42,0,0-1.31-10.246.45-12.691,0,0,1.06-4.017,4.98-3.26,0,0,2.8.232,1.95,4.424,0,0,.7,10.673,1.59,16.418,0,0,.97.524,0.69-0.815a13.832,13.832,0,0,0,.47-5.832s5.99-.222,6.23,2.921a14.945,14.945,0,0,1,.77,4.541s1.67,0.349,1.5-.35a3.981,3.981,0,0,0-.45-3.26s8.01,0.291,4.09,14.9c0,0-3.13,9.722-9.43,10.363,0,0-8.47,1.339-12.5-2.329,0,0-3.98-4.075-4.78-5.007a27.362,27.362,0,0,1-1.96-6.138,21.731,21.731,0,0,1-.08-5.96l2.8-3.689S-1068.88-148.328-1070.66-140.951Zm16.03,11.983a44.062,44.062,0,0,0,2.04-5.705,0.747,0.747,0,0,1,1.03-.466,1.157,1.157,0,0,1,1.15,1.514,42.017,42.017,0,0,1-3.09,5.472s-0.45.932-1.13,0.466C-1054.63-127.687-1055.43-127.8-1054.63-128.968Zm-6.14.117s1.16-4.774,1.05-5.939a4.32,4.32,0,0,0-1.73-.7s-0.63.058-.57,1.048c0,0-.11,4.133-0.23,5.589a0.815,0.815,0,0,0,.57,1.048S-1060.83-127.687-1060.77-128.851Zm2.5-.117s1.19-5.589,1.36-8.034a0.927,0.927,0,0,1,.91-1.048,1.344,1.344,0,0,1,1.5,1.514s-1.61,5.88-2.41,8.034a0.843,0.843,0,0,1-.91.815S-1058.55-127.687-1058.27-128.968Zm-8.95,3.6s5.25,4.173,14.75.475c0,0,1.19,3.785-7.39,3.843C-1059.86-121.05-1068.93-120.594-1067.22-125.368Z"/>
  <g id="stats-reg">
    <g id="stat-pockey-color_copy_2" data-name="stat-pockey-color copy 2">
      <path id="red1" class="cls-2" d="M33.5,23.079V34.4l-2.25.755V18.549H33.5v4.53M10.25,49.5s1.563-.063,2.25-3.02l0.75-2.265s0.5-1.2-1.5-1.51l-1.5,3.775-0.75.755Zm43.509,0s-1.543-.063-2.222-3.02L50.8,44.216s-0.494-1.2,1.481-1.51l1.482,3.775L54.5,47.236Z"/>
      <path id="red2" class="cls-2" d="M49.813,12.579C47.69,11.8,44.75,11,44.75,11H42.5l9,4.529h-18V11.755S33.5,11,32.375,11a0.987,0.987,0,0,0-1.125.755V15.53h0.718L23,15.548V15.53H13.893L22.25,11H20s-2.94.8-5.063,1.579a52.507,52.507,0,0,0-6.3,2.575c-1.934.623-3.968,3.017-3.563,7.212l2.994,26.4a2.891,2.891,0,0,0,1.59.754,2.35,2.35,0,0,0,1.4-.754S8.625,26.8,8.064,21.612c0,0-.647-3.738,3.686-3.77L32,17.791H52.2c4.395,0,3.74,3.769,3.74,3.769C55.375,26.743,52.944,48.7,52.944,48.7a7.018,7.018,0,0,0,2.153.754,0.822,0.822,0,0,0,.84-0.754L58.93,22.314c0.335-3.466-.986-5.94-2.544-6.785C56.386,15.53,51.811,13.31,49.813,12.579Z"/>
      <path id="net" class="cls-3" d="M53.3,23.977l-0.32,3.3-0.421-.42-2.295,2.31,2.31,2.3-0.233,2.4-2.033,2.046,1.673,1.668L51.608,41.4,50.35,42.667l-0.507-1.625,1.736-1.748-2.325-2.319-0.608.612a6.691,6.691,0,0,0-.924-1.205l0.467-.47-2.154-2.148-0.171-.17-0.91.916a11.965,11.965,0,0,0-1.567-.558l1.411-1.42-2.325-2.319-2.295,2.31,0.985,0.982a22,22,0,0,0-3.961-.121l0.859-.865L35.735,30.2,34.25,31.7V29.56l0.419-.422L34.25,28.72V26.853h0c0-.081.01-0.15,0.011-0.229l0.209,0.209,1.251,1.247,2.295-2.31-1.887-1.881-0.438-.437-1.172,1.179a4.828,4.828,0,0,1,3.009-3.537l0.252,0.254-1.038,1.045,0.1,0.1,2.225,2.219,2.295-2.31-2.034-2.035,1.807-.3,1.279,1.275L43.47,20.28l1.811,0.313-1.8,1.813L45.8,24.724l2.295-2.31-2.047-2.048,1.807-.3,1.292,1.288L50.22,20.28l1.811,0.313-1.814,1.826,2.325,2.319ZM49.24,34.855l2.295-2.31L49.7,30.717l-0.492-.49-2.295,2.31ZM36.787,29.142l2.325,2.319,2.295-2.31-2.325-2.319Zm5.641-5.678-2.295,2.31,2.325,2.319,2.295-2.31Zm1.1,5.691,2.325,2.319,2.295-2.31-2.325-2.319Zm5.641-5.678-2.295,2.31,0.168,0.168L49.2,28.106,51.49,25.8ZM29.028,34.816l-1.08-1.077L26.7,32.5,29,30.188l1,0.993,0.506,0.5V29.579l-0.451-.449,0.451-.454V26.853c0-.106-0.012-0.2-0.015-0.3l-1.5,1.512-0.139-.139-2.186-2.18,2.295-2.31,0.934,0.931,0.376,0.375A4.822,4.822,0,0,0,26.8,20.955l-0.167.166,1.258,1.254-2.295,2.31-2.325-2.319,1.762-1.774L23.22,20.28,22.2,21.3l-1.24-1.237-1.807.3,2,2-2.295,2.31-2.325-2.319,1.75-1.761L16.47,20.28l-1,1.011-1.227-1.224-1.807.3,1.982,1.984-2.295,2.31-1.494-1.49,0.453,4.673,1.055-1.062L14.458,29.1l-2.295,2.31-0.819-.816,0.333,3.44,0.5-.5L13.053,34.4,14.5,35.849l-2.295,2.31-0.144-.143,0.226,2.333L13.5,41.56c0.415-.27.85-0.539,1.3-0.808l-1.535-1.53,2.295-2.31,2.219,2.213c1.319-.663,5.652-2.471,6.169-2.661l-0.6-.6,2.295-2.31L27.4,35.3C28.147,35.067,29.028,34.816,29.028,34.816Zm-4.442-2.323-2.325-2.319-2.295,2.31L22.291,34.8Zm-5.641,5.678,2.295-2.31-2.325-2.319-2.295,2.31Zm-5.716-5.7,2.325,2.319,2.295-2.31-2.114-2.108-0.211-.21Zm2.25-9.059-2.295,2.31,2.325,2.319,2.295-2.31Zm1.1,5.691,1.31,1.307L18.9,31.422l2.295-2.31-0.573-.571L18.87,26.794Zm6.5-4.825-0.855-.853-2.295,2.31,1.3,1.3,1.02,1.017,2.295-2.31Zm4.86,4.847-2.325-2.319-2.295,2.31,1.141,1.138,1.184,1.181ZM19.914,13.471l3.836-1.716H30.5v3.02H20.8C18.65,14.775,18.393,14.151,19.914,13.471Zm24.643,0-3.735-1.716H34.25v3.02H43.7C45.787,14.775,46.037,14.151,44.557,13.471Z"/>
      <path id="puck1" class="cls-4" d="M39.292,55.561c-2.772,1.306-5.1,2.133-5.1,2.133s-14.955,4.045-17.637-2.1l-2.5-6.158s3.973,2.35,17.579-1.3c1.929-.517,3.61-1.041,5.107-1.559Z"/>
      <path id="puck2" class="cls-2" d="M47.527,50.038l-1.8-7.843a7.122,7.122,0,0,0,1.778-1.726l0.911,6.584A3.4,3.4,0,0,1,47.527,50.038Zm-4.6,3.621-2.425-8.544c1.157-.508,2.144-1,2.962-1.461l1.923,8.387A25.9,25.9,0,0,1,42.93,53.659Z"/>
      <path id="puck3" class="cls-2" d="M29.052,37.622c8.463-2.233,15.806-2.274,16.4-.091s-5.785,5.762-14.249,8S15.4,47.8,14.8,45.617,20.589,39.855,29.052,37.622Z"/>
    </g>
  </g>
</svg>
