<svg id="rank-color_shadow" data-name="rank-color+shadow" xmlns="http://www.w3.org/2000/svg" width="30" height="54" viewBox="0 0 30 54">
  <defs>
    <style>
      .cls-1 {
        fill: #011417;
        opacity: 0.75;
      }

      .cls-2 {
        fill: #fff;
        fill-rule: evenodd;
      }
    </style>
  </defs>
  <g id="guess">
    <rect id="shadow" class="cls-1" x="1" y="2" width="28" height="52" rx="14" ry="14"/>
    <path id="icon" class="cls-2" d="M15,51A12,12,0,0,1,3,39V14h0.05a11.99,11.99,0,0,1,23.9,0H27V39A12,12,0,0,1,15,51Zm9-37H23.941A9,9,0,0,0,6.059,14H6V39a9,9,0,0,0,18,0V14Zm-5.541,8.234a15.594,15.594,0,0,0-1.576,2.1A2.359,2.359,0,0,1,17,25L16,38a1,1,0,0,1-2,0L13,25a6.364,6.364,0,0,1,1.88-2.948,16.051,16.051,0,0,1,1.3-1.91,8.8,8.8,0,0,0,1.35-4.037c0.127-2.748-2.024-2.748-2.024-2.748-2.5,0-2.109,2.92-2.109,2.92,0,3.307-2.7,3.006-2.7,3.006-2.573,0-2.7-2.834-2.7-2.834,0-6.1,4.47-6.957,4.47-6.957a7.38,7.38,0,0,1,7.591,1.46c2.741,2.834,1.771,6.957,1.771,6.957C21.454,20.142,18.459,22.234,18.459,22.234ZM15,41a2,2,0,1,1-2,2A2,2,0,0,1,15,41Z"/>
  </g>
</svg>
