<svg id="rank-color_shadow" data-name="rank-color+shadow" xmlns="http://www.w3.org/2000/svg" width="30" height="54" viewBox="0 0 30 54">
  <defs>
    <style>
      .cls-1 {
        fill: #011417;
        opacity: 0.75;
      }

      .cls-1, .cls-2 {
        fill-rule: evenodd;
      }

      .cls-2 {
        fill: #fff;
      }
    </style>
  </defs>
  <g id="special1-raidboss">
    <path id="shadow" class="cls-1" d="M15,1A103.778,103.778,0,0,1,29,17s-0.875,3.875-4,5a3.682,3.682,0,0,1-2,4s0.813,5.5,3,8c0,0,2,2.6,2,5,0,2.072-2,9-2,9a10.007,10.007,0,0,1-3-5s-1.687,5.063-5,7c0,0-1.875,3.688-3,4V1m0,0A103.778,103.778,0,0,0,1,17s0.875,3.875,4,5a3.682,3.682,0,0,0,2,4s-0.812,5.5-3,8c0,0-2,2.6-2,5,0,2.072,2,9,2,9a10.007,10.007,0,0,0,3-5s1.688,5.063,5,7c0,0,1.875,3.688,3,4V1"/>
    <path id="color" class="cls-2" d="M23,18.932a22.753,22.753,0,0,0-6-5.974,51.681,51.681,0,0,1,6,9.953,29.822,29.822,0,0,1-6.955,2.714A5.173,5.173,0,0,0,17.866,28a16.308,16.308,0,0,1,.864,1.423c1.135-.3,3.082-2.423,3.082-2.423A13.2,13.2,0,0,0,24.7,34.977S25.917,36,25,43c0,0-2.228-6.542-4.671-9.489a21.156,21.156,0,0,1,.4,8.489,13.222,13.222,0,0,1-2.866,5c1.528-5-.955-17-0.955-17C17.675,36.2,15,51,15,51s-2.689-14.8-1.92-21c0,0-2.5,12-.96,17a13.21,13.21,0,0,1-2.881-5,20.972,20.972,0,0,1,.314-8.141C7.313,36.939,5.33,43,5.33,43c-0.879-7,.288-8.023.288-8.023A13.593,13.593,0,0,0,8.386,27a10.716,10.716,0,0,0,2.88,2.393A16.294,16.294,0,0,1,12.119,28a5.244,5.244,0,0,0,1.795-2.293A29.444,29.444,0,0,1,7,23a51.927,51.927,0,0,1,6-10,22.8,22.8,0,0,0-6,6L3,18A84.586,84.586,0,0,1,15,3,84.275,84.275,0,0,1,27,17.936Z"/>
  </g>
</svg>
