<svg id="rank-color_shadow" data-name="rank-color+shadow" xmlns="http://www.w3.org/2000/svg" width="30" height="54" viewBox="0 0 30 54">
  <defs>
    <style>
      .cls-1 {
        fill: #011417;
        opacity: 0.75;
      }

      .cls-1, .cls-2, .cls-3 {
        fill-rule: evenodd;
      }

      .cls-2 {
        fill: #fff;
      }

      .cls-3 {
        fill: #cd6ef1;
      }
    </style>
  </defs>
  <g id="_7" data-name="7">
    <path id="shadow" class="cls-1" d="M15,2h6l1,1V5a3.188,3.188,0,0,0-1.962,1.925A20.818,20.818,0,0,0,19,11v3s9,4.271,9,12c0,6.25-1,8-1,8s2,4.147,2,5.438L27,42H19v5s0.031,2.125,3,4l1,1v1l-1,1H15M15,2H9L8,3V5A3.188,3.188,0,0,1,9.963,6.925,20.818,20.818,0,0,1,11,11v3S2,18.271,2,26c0,6.25,1,8,1,8s-2,4.147-2,5.438L3,42h8v5s-0.031,2.125-3,4L7,52v1l1,1h7"/>
    <path id="icon" class="cls-2" d="M22.945,26.908a8,8,0,1,0-15.89,0L4.939,30.436a11,11,0,1,1,20.123,0ZM15.6,20L26.939,37.232,25.172,39H4.828L3.061,37.232,14.4,20h1.2Zm4.411,16H9.989L8.774,34.784,15,25l6.226,9.784Z"/>
    <path id="color" class="cls-3" d="M17,13V9c0-5,3-6,3-6H10s3,1,3,6v4h4Zm0,28v4c0,5,3,6,3,6H10s3-1,3-6V41h4Z"/>
  </g>
</svg>
