<svg id="rank-color_shadow" data-name="rank-color+shadow" xmlns="http://www.w3.org/2000/svg" width="30" height="54" viewBox="0 0 30 54">
  <defs>
    <style>
      .cls-1 {
        fill: #011417;
        opacity: 0.75;
      }

      .cls-1, .cls-2, .cls-3 {
        fill-rule: evenodd;
      }

      .cls-2 {
        fill: #fff;
      }

      .cls-3 {
        fill: #3ee8f3;
      }
    </style>
  </defs>
  <g id="_6" data-name="6">
    <path id="shadow" class="cls-1" d="M15,2H28l1,1V5a3.188,3.188,0,0,0-1.962,1.925A20.818,20.818,0,0,0,26,11v4h2l1,3-3,7,1,2-1,3,3,9-3,2v6s0.031,2.125,3,4l1,1v1l-1,1H15M15,2H2L1,3V5A3.188,3.188,0,0,1,2.963,6.925,20.815,20.815,0,0,1,4,11v4H2L1,18l3,7L3,27l1,3L1,39l3,2v6s-0.031,2.125-3,4L0,52v1l1,1H15"/>
    <path id="icon" class="cls-2" d="M19,17l8-1-3,7ZM3,16l8,1L6,23ZM6,31l5,6L3,38ZM4.994,27L15,14.994,25.013,27,15,39.007ZM15,20L9,27,15,34l6.006-7Zm-3,7,3-3,3,3-3,3ZM27,38l-8-1,5-6Z"/>
    <path id="color" class="cls-3" d="M24,9v5l-4,1V3h7S24,4,24,9ZM12,15V3h6V15l-3-3ZM6,9C6,4,3,3,3,3h7V15L6,14V9ZM24,45V40l-4-1V51h7S24,50,24,45ZM12,39V51h6V39l-3,3ZM6,45c0,5-3,6-3,6h7V39L6,40v5Z"/>
  </g>
</svg>
