<svg id="rank-color_shadow" data-name="rank-color+shadow" xmlns="http://www.w3.org/2000/svg" width="30" height="54" viewBox="0 0 30 54">
  <defs>
    <style>
      .cls-1 {
        fill: #011417;
        opacity: 0.75;
      }

      .cls-1, .cls-2, .cls-3 {
        fill-rule: evenodd;
      }

      .cls-2 {
        fill: #fff;
      }

      .cls-3 {
        fill: #fa4c6d;
      }
    </style>
  </defs>
  <g id="sc">
    <path id="shadow" class="cls-1" d="M25,27c1.657,0,4,1.343,4,3V50a3,3,0,0,1-3,3H4a3,3,0,0,1-3-3V30c0-1.657,2.343-3,4-3l0.382-6.711a0.794,0.794,0,0,0-.131-0.665L0.658,14.7A2.594,2.594,0,0,1,0,12.967a2.341,2.341,0,0,1,.46-1.4,2.352,2.352,0,0,1,1.513-.8L8.079,8.447a1.068,1.068,0,0,0,.789-0.466L12.829,2.6A2.565,2.565,0,0,1,15,1a2.565,2.565,0,0,1,2.171,1.6l3.961,5.385a1.068,1.068,0,0,0,.79.466l6.105,2.325a2.352,2.352,0,0,1,1.513.8,2.341,2.341,0,0,1,.46,1.4,2.594,2.594,0,0,1-.658,1.729L24.75,19.624a0.793,0.793,0,0,0-.131.665Z"/>
    <path id="icon" class="cls-2" d="M26,34v3H20l-1,1v4l1,1h6v3H17l-1-1V35l1-1h9ZM4,43h7V41H4V34.833L5,34h9v3H7v2h7v6l-1,1H5L4,45V43ZM26.474,14.656L22.679,17.3,20.228,9.859l5.193,1.685a1.884,1.884,0,0,1,1.21.633A1.845,1.845,0,0,1,27,13.284,2.049,2.049,0,0,1,26.474,14.656ZM11.054,8.99l2.209-4.724A2.047,2.047,0,0,1,15,3a2.047,2.047,0,0,1,1.737,1.266L18.946,8.99H11.054ZM7.321,17.3L3.526,14.656A2.049,2.049,0,0,1,3,13.284a1.845,1.845,0,0,1,.368-1.108,1.884,1.884,0,0,1,1.211-.633L9.772,9.859ZM8,18.971l6.218,4.455L10,25.736A2.84,2.84,0,0,1,8.895,26,1.756,1.756,0,0,1,7.21,24.47a4.718,4.718,0,0,1,.211-1.846Zm14,0,0.578,3.653a4.718,4.718,0,0,1,.211,1.846A1.756,1.756,0,0,1,21.105,26,2.841,2.841,0,0,1,20,25.736l-4.217-2.31Z"/>
    <path id="color" class="cls-3" d="M16.7,12.255a0.965,0.965,0,0,0-1.427.154,1.152,1.152,0,0,0,.143,1.538l3.925,3.46a0.944,0.944,0,0,0,1.011.154L14.983,21.99,9.42,17.407l0.631-2.2,3.241,2.857a0.965,0.965,0,0,0,1.427-.154,1.152,1.152,0,0,0-.143-1.538L10.7,12.951l0.848-2.959H18.42l1.447,5.052ZM4.5,29h21A1.5,1.5,0,0,1,27,30.5h0A1.5,1.5,0,0,1,25.5,32H4.5A1.5,1.5,0,0,1,3,30.5H3A1.5,1.5,0,0,1,4.5,29Zm0,19h21a1.5,1.5,0,0,1,0,3H4.5A1.5,1.5,0,0,1,4.5,48Z"/>
  </g>
</svg>
