<svg id="rank-color_shadow" data-name="rank-color+shadow" xmlns="http://www.w3.org/2000/svg" width="30" height="54" viewBox="0 0 30 54">
  <defs>
    <style>
      .cls-1 {
        fill: #011417;
        opacity: 0.75;
      }

      .cls-1, .cls-2, .cls-3 {
        fill-rule: evenodd;
      }

      .cls-2 {
        fill: #fff;
      }

      .cls-3 {
        fill: #3ee8f3;
      }
    </style>
  </defs>
  <g id="_4" data-name="4">
    <path id="shadow" class="cls-1" d="M15,2h5a1.959,1.959,0,0,1,2,2s-0.133,1.773-1,2c-1.412.37-2,2.406-2,5v7l8,8a3.315,3.315,0,0,1,1,1.938A3.679,3.679,0,0,1,27,30L19,40v7s0.031,2.125,3,4a2.738,2.738,0,0,1,1,1.594A2.321,2.321,0,0,1,22,54H15M15,2H9L8,3V5A3.188,3.188,0,0,1,9.963,6.925,20.818,20.818,0,0,1,11,11v7L3,26a3.315,3.315,0,0,0-1,1.938A3.679,3.679,0,0,0,3,30l8,10v7s-0.031,2.125-3,4L7,52v1l1,1h7"/>
    <path id="icon" class="cls-2" d="M25.01,27L15,39.006,4.99,27,15,14.994ZM8.993,27L15,34,21,27,15,20Z"/>
    <path id="color" class="cls-3" d="M17,14V9c0-5,3-6,3-6H10s3,1,3,6v5l2-2Zm0,26v5c0,5,3,6,3,6H10s3-1,3-6V40l2,2Z"/>
  </g>
</svg>
