<svg id="rank-color_shadow" data-name="rank-color+shadow" xmlns="http://www.w3.org/2000/svg" width="30" height="54" viewBox="0 0 30 54">
  <defs>
    <style>
      .cls-1 {
        fill: #011417;
        opacity: 0.75;
      }

      .cls-1, .cls-2, .cls-3 {
        fill-rule: evenodd;
      }

      .cls-2 {
        fill: #fff;
      }

      .cls-3 {
        fill: #cd6ef1;
      }
    </style>
  </defs>
  <g id="_8" data-name="8">
    <path id="shadow" class="cls-1" d="M15,2H6L5,3V5A3.188,3.188,0,0,1,6.963,6.925,20.815,20.815,0,0,1,8,11v5S2,19.771,2,27c0,6.25,1,7,1,7s-2,4.147-2,5.438L3,42H8v5s-0.031,2.125-3,4L4,52v1l1,1H15M15,2h9l1,1V5a3.188,3.188,0,0,0-1.962,1.925A20.818,20.818,0,0,0,22,11v5s6,3.771,6,11c0,6.25-1,7-1,7s2,4.147,2,5.438L27,42H22v5s0.031,2.125,3,4l1,1v1l-1,1H15"/>
    <path id="icon" class="cls-2" d="M22.882,27.323a8,8,0,1,0-15.763,0l-2.136,3.2a11,11,0,1,1,20.035,0ZM15.6,20L26.939,37.232,25.172,39H4.828L3.061,37.232,14.4,20h1.2ZM9.989,36H20.011l1.216-1.216L15,25,8.774,34.785ZM18,33.448L17.417,34H12.583L12,33.448,15,29Z"/>
    <path id="color" class="cls-3" d="M7,51s3-1,3-6V41h4V51H7Zm16,0s-3-1-3-6V41H16V51h7ZM7,3s3,1,3,6v5l4-1V3H7ZM23,3s-3,1-3,6v5l-4-1V3h7Z"/>
  </g>
</svg>
