<svg id="rank-color_shadow" data-name="rank-color+shadow" xmlns="http://www.w3.org/2000/svg" width="30" height="54" viewBox="0 0 30 54">
  <defs>
    <style>
      .cls-1 {
        fill: #011417;
        opacity: 0.75;
      }

      .cls-1, .cls-2, .cls-3 {
        fill-rule: evenodd;
      }

      .cls-2 {
        fill: #fff;
      }

      .cls-3 {
        fill: #cd6ef1;
      }
    </style>
  </defs>
  <g id="_9" data-name="9">
    <path id="shadow" class="cls-1" d="M15,54H29l1-1V52l-1-1c-2.969-1.875-3-4-3-4V41l3-3.562L26,32c0.011,0.008,3.058-.46,2.4-6.634A16.966,16.966,0,0,0,26,19V11a20.818,20.818,0,0,1,1.038-4.075A3.188,3.188,0,0,1,29,5V3L28,2H15m0,52H1L0,53V52l1-1c2.969-1.875,3-4,3-4V41L1,37.438,4,32c-0.011.008-3.058-.46-2.4-6.634A16.965,16.965,0,0,1,4,19V11A20.815,20.815,0,0,0,2.963,6.925,3.188,3.188,0,0,0,1,5V3L2,2H15"/>
    <path id="icon" class="cls-2" d="M25.172,38H4.829L3.061,36.232,14.4,19h1.2L26.94,36.232ZM19.835,27H10.166L8.993,28.216,15,38l6.007-9.784ZM12.1,29.553L12.668,29h4.664L17.9,29.553,15,34Zm-7.12-.026a11,11,0,1,1,20.035,0l-2.136-3.2a8,8,0,1,0-15.763,0Z"/>
    <path id="color" class="cls-3" d="M24,45V40H20V51h7S24,50,24,45ZM12,40V51h6V40H12ZM6,45c0,5-3,6-3,6h7V40H6v5ZM24,9v6.633A13,13,0,0,0,20,13V3h7S24,4,24,9Zm-9,3a13,13,0,0,0-3,.362V3h6v9.362A13,13,0,0,0,15,12ZM6,15.633V9C6,4,3,3,3,3h7V13A13,13,0,0,0,6,15.633Z"/>
  </g>
</svg>
