<svg id="rank-color_shadow" data-name="rank-color+shadow" xmlns="http://www.w3.org/2000/svg" width="30" height="54" viewBox="0 0 30 54">
  <defs>
    <style>
      .cls-1 {
        fill: #011417;
        opacity: 0.75;
      }

      .cls-1, .cls-2, .cls-3 {
        fill-rule: evenodd;
      }

      .cls-2 {
        fill: #fff;
      }

      .cls-3 {
        fill: #ff6b11;
      }
    </style>
  </defs>
  <g id="_15" data-name="15">
    <path id="shadow" class="cls-1" d="M16,2H28l1,1V5a3.188,3.188,0,0,0-1.962,1.925A20.818,20.818,0,0,0,26,11v9l2,1-1,8,2,2-3,4V47s0.031,2.125,3,4l1,1v1l-1,1H15M16,2H2L1,3V5A3.188,3.188,0,0,1,2.963,6.925,20.815,20.815,0,0,1,4,11v9L2,21l1,8L1,31l3,4V47s-0.031,2.125-3,4L0,52v1l1,1H15"/>
    <path id="_15-2" data-name="15" class="cls-2" d="M17,31l3-4,7,4-7,2Zm7.167-4-3.333-.833L20,22.834,26,22ZM19.15,20.885l-0.928-3.4A10.993,10.993,0,0,1,23,20.5ZM7,20.5a11,11,0,0,1,4.777-3.016l-0.928,3.4ZM5.834,27L4,22l6,0.833L9.167,26.167ZM13,31l-3,2L3,31l7-4Zm7.373,3.237,3.421,0.342a11.035,11.035,0,0,1-6.235,4.115l1.524-3.555A8.33,8.33,0,0,0,20.373,34.237Zm-10.747,0a8.33,8.33,0,0,0,1.291.9l1.524,3.555a11.035,11.035,0,0,1-6.235-4.115ZM15,16l4,10-4,4-4-4Zm0.013,23.775L12,33l3-2,3,2C16.887,34.272,15.013,39.775,15.013,39.775Z"/>
    <path id="color" class="cls-3" d="M24,9v9l-4-2V3h7S24,4,24,9ZM12,15V3h6V15l-3-1ZM6,9C6,4,3,3,3,3h7V16L6,18V9ZM6,45V38l4,3V51H3S6,50,6,45Zm12-4V51H12V41l3,1Zm6,4c0,5,3,6,3,6H20V41l4-3v7Z"/>
  </g>
</svg>
