<svg id="rank-color_shadow" data-name="rank-color+shadow" xmlns="http://www.w3.org/2000/svg" width="30" height="54" viewBox="0 0 30 54">
  <defs>
    <style>
      .cls-1 {
        fill: #011417;
        opacity: 0.75;
      }

      .cls-1, .cls-2, .cls-3 {
        fill-rule: evenodd;
      }

      .cls-2 {
        fill: #36edc9;
      }

      .cls-3 {
        fill: #fff;
      }
    </style>
  </defs>
  <g id="_1" data-name="1">
    <path id="shadow" class="cls-1" d="M15,2h6l1,1V5a3.188,3.188,0,0,0-1.962,1.925A20.818,20.818,0,0,0,19,11V21l2,2,4-3h1l3,3v4L19,35V47s0.031,2.125,3,4l1,1v1l-1,1H15M15,2H9L8,3V5A3.188,3.188,0,0,1,9.963,6.925,20.818,20.818,0,0,1,11,11V21L9,23,5,20H4L1,23v4l10,8V47s-0.031,2.125-3,4L7,52v1l1,1h7"/>
    <path id="color" class="cls-2" d="M17,19V9c0-5,3-6,3-6H10s3,1,3,6V19l2-2Zm0,16V45c0,5,3,6,3,6H10s3-1,3-6V35l2,2Z"/>
    <path id="icon" class="cls-3" d="M15,34L3,25V22.828H3l1.616-1.616L15,29l10.384-7.788L27,22.828V25Zm4-11-4,3-4-3,4-3Z"/>
  </g>
</svg>
