<svg xmlns="http://www.w3.org/2000/svg" width="26" height="26" viewBox="0 0 26 26">
  <defs>
    <style>
      .cls-1 {
        fill: #fff;
        fill-rule: evenodd;
      }
    </style>
  </defs>
  <path id="emoji" class="cls-1" d="M13.233,25C3.411,25,.991,19.991.991,13.234A12.124,12.124,0,0,1,13,1,12.124,12.124,0,0,1,25.014,13.234C25.014,19.991,23.056,25,13.233,25ZM13,23.586c4.337,0,8.315-2.713,8.315-6.06,0-.12-0.938-0.708-0.947-0.827a66.1,66.1,0,0,1-7.707.3,50.13,50.13,0,0,1-7.029-.3c-0.009.119-.947,1.177-0.947,1.3C4.687,21.343,8.665,23.586,13,23.586Zm6.929-13.175c2.041,0,2.31,2.465,2.31,3.764s-1.034,1.412-2.31,1.412-2.31-.112-2.31-1.412S17.891,10.411,19.932,10.411Zm-14.321,0c2.041,0,2.31,2.465,2.31,3.764s-1.034,1.412-2.31,1.412S3.3,15.475,3.3,14.175,3.57,10.411,5.611,10.411Zm15.245,2.823a1.436,1.436,0,0,1-1.386-.941,0.924,0.924,0,1,1,1.848,0C21.318,12.813,21.366,13.234,20.856,13.234ZM19.932,18.41C18.354,20.292,13,19.822,13,19.822s-5.351.471-6.929-1.412l0.462-.471H19.47Zm-13.4-5.176a1.436,1.436,0,0,1-1.386-.941,0.924,0.924,0,1,1,1.848,0C7,12.813,7.045,13.234,6.535,13.234Z"/>
</svg>
