<svg xmlns="http://www.w3.org/2000/svg" width="40" height="30" viewBox="0 0 40 30">
  <defs>
    <style>
      .cls-1 {
        fill: #fff;
        fill-rule: evenodd;
      }
    </style>
  </defs>
  <path id="notification" class="cls-1" d="M18,13v4s-0.25,2.5-2,3v2h8V15Zm6-8a2,2,0,1,1-2,2A2,2,0,0,1,24,5Zm6,8v4s0.25,2.5,2,3v2H24V15ZM24,7a6,6,0,1,1-6,6A6,6,0,0,1,24,7ZM21,24a3.071,3.071,0,0,0,3,2s3.063-.313,3-2C27,24,24.625,22.313,21,24ZM9.5,19h3a1.5,1.5,0,0,1,0,3h-3A1.5,1.5,0,0,1,9.5,19Zm0-6h5a1.5,1.5,0,0,1,0,3h-5A1.5,1.5,0,0,1,9.5,13Zm0-6h6a1.5,1.5,0,0,1,0,3h-6A1.5,1.5,0,0,1,9.5,7Z"/>
</svg>
