<svg xmlns="http://www.w3.org/2000/svg" width="24" height="24" viewBox="0 0 24 24">
  <defs>
    <style>
      .cls-1 {
        fill: #20d7e7;
      }

      .cls-1, .cls-2 {
        fill-rule: evenodd;
      }

      .cls-2 {
        fill: #fff;
      }
    </style>
  </defs>
  <path id="login-border" class="cls-1" d="M1,2A2,2,0,0,1,3,0H22a2,2,0,0,1,2,2V22a2,2,0,0,1-2,2H3a2,2,0,0,1-2-2V17.5c0.938,0.3.89,0.281,1.5,0.5A1.769,1.769,0,0,1,4,19.5L4.277,20A1.992,1.992,0,0,0,6,21H19a2,2,0,0,0,2-2V5a2,2,0,0,0-2-2H6A1.992,1.992,0,0,0,4.277,4L4,4.5C4,5.328,3.213,5.578,2.5,6A2.725,2.725,0,0,1,1,6.5V2Z"/>
  <path id="login-arrow" class="cls-2" d="M10.235,18.941L9,18V16H3L0.091,13.091,11,14v2l4-4L11,8v2l-10.91.909L3,8H9V6l1.194-.977L19,12Z"/>
</svg>
