<svg xmlns="http://www.w3.org/2000/svg" width="24" height="24" viewBox="0 0 24 24">
  <defs>
    <style>
      .cls-1 {
        fill: #f52963;
        fill-rule: evenodd;
      }
    </style>
  </defs>
  <path id="error" class="cls-1" d="M18.729,19.52s-2.11.323-6.84-2.608a12.4,12.4,0,0,1-3.423,2.377c-6.574,3.687-4.363-2.061-4.422-2.08,0.762-1.366,2.377-2.349,3.536-3.377C6.2,12.734,4.7,11.45,3.041,9.889c0,0-2.836-5.359,2.721-2.959a32.472,32.472,0,0,0,4.671,4.031c3.347-3.418,5.181-5.475,5.181-5.475,5.494-6.462,3.318-.306,3.318-0.306a31.6,31.6,0,0,1-4.171,8.449c1.392,0.736,3,1.5,4.914,2.3C19.675,15.928,26.17,19.744,18.729,19.52Z"/>
</svg>
