<svg xmlns="http://www.w3.org/2000/svg" width="24" height="24" viewBox="0 0 24 24">
  <defs>
    <style>
      .cls-1 {
        fill: #fff;
        fill-rule: evenodd;
      }
    </style>
  </defs>
  <path id="icon-minimize" class="cls-1" d="M16.033,12.994c-0.034.034-.078,0.05-0.113,0.083C14.8,14.2,13.4,15.215,12.039,15.215c-1.466,0-2.439-.629-3.872-2.062L0.994,5.965a3.4,3.4,0,0,1,4.8-4.81l6.355,6.369,6.22-6.234a3.307,3.307,0,1,1,4.672,4.682Zm7.634,5.188a1.653,1.653,0,0,1,.287.889v3.4a1.7,1.7,0,0,1-1.7,1.7H1.935a1.7,1.7,0,0,1-1.7-1.7v-3.4a1.653,1.653,0,0,1,.287-0.889H23.667Z"/>
</svg>
