<svg xmlns="http://www.w3.org/2000/svg" width="24" height="24" viewBox="0 0 24 24">
  <defs>
    <style>
      .cls-1 {
        fill: #fff;
        fill-rule: evenodd;
      }
    </style>
  </defs>
  <path id="playericon" class="cls-1" d="M18.287,22H5.7C2.64,22,3,17.555,3,17.555,4.26,8.481,8.4,12,8.4,12c1.08,0.926,3.6.926,3.6,0.926l1.8-.225a3.113,3.113,0,0,0,1.79-.947s4.129-3.6,5.385,5.678C20.979,17.432,21.338,22,18.287,22ZM12,11.074c-2.486,0-4.5-2.28-4.5-5.093S9.517,2,12,2s4.5,1.169,4.5,3.981S14.49,11.074,12,11.074Z"/>
</svg>
