<svg xmlns="http://www.w3.org/2000/svg" width="24" height="24" viewBox="0 0 24 24">
  <defs>
    <style>
      .cls-1 {
        fill: #fff;
        fill-rule: evenodd;
      }
    </style>
  </defs>
  <path id="overlay-collapse" class="cls-1" d="M22.536,5.929H1.464A1.464,1.464,0,1,1,1.464,3H22.536A1.464,1.464,0,0,1,22.536,5.929ZM10.328,8.907A2.279,2.279,0,0,1,12,8a2.279,2.279,0,0,1,1.672.908l9.813,9.58a1.44,1.44,0,0,1,0,2.071,3.054,3.054,0,0,1-3.121,0L12,14.239l-8.364,6.32a3.054,3.054,0,0,1-3.121,0,1.44,1.44,0,0,1,0-2.071Z"/>
</svg>
