<svg xmlns="http://www.w3.org/2000/svg" width="32" height="24" viewBox="0 0 32 24">
  <defs>
    <style>
      .cls-1 {
        fill: #fff;
        fill-rule: evenodd;
      }

      .cls-2 {
        fill: #f52963;
      }
    </style>
  </defs>
  <path id="overlay-chat" class="cls-1" d="M27,15h1.031v2.969a2,2,0,0,1-2,2h-3v1.988a9.635,9.635,0,0,1-3,1l-2.993-2.986H6.031a2,2,0,0,1-2-2V7a2,2,0,0,1,2-2H16v5.972a2,2,0,0,0,0,3.994V15H27ZM9.031,10.969a2,2,0,1,0,2,2A2,2,0,0,0,9.031,10.969Z"/>
  <rect id="notification" class="cls-2" x="18.063" y="2" width="13" height="10.969" rx="2" ry="2"/>
</svg>
