<svg xmlns="http://www.w3.org/2000/svg" width="32" height="24" viewBox="0 0 32 24">
  <defs>
    <style>
      .cls-1 {
        fill: #fff;
        fill-rule: evenodd;
      }
    </style>
  </defs>
  <path id="overlay-chat" class="cls-1" d="M26.031,19.969h-3v1.988a9.635,9.635,0,0,1-3,1l-2.993-2.986H6.031a2,2,0,0,1-2-2V7a2,2,0,0,1,2-2h20a2,2,0,0,1,2,2V17.969A2,2,0,0,1,26.031,19.969Zm-17-9a2,2,0,1,0,2,2A2,2,0,0,0,9.031,10.969Zm7,0a2,2,0,1,0,2,2A2,2,0,0,0,16.031,10.969Zm7,0a2,2,0,1,0,2,2A2,2,0,0,0,23.031,10.969Z"/>
</svg>
