<svg xmlns="http://www.w3.org/2000/svg" width="32" height="24" viewBox="0 0 32 24">
  <defs>
    <style>
      .cls-1 {
        fill: #fff;
        fill-rule: evenodd;
      }
    </style>
  </defs>
  <path id="overlay-friends" class="cls-1" d="M15.038,19.961H5.95C3.74,19.961,4,15.969,4,15.969c0.91-6.52,3.9-3.992,3.9-3.992a5.067,5.067,0,0,0,2.6.665l1.3-.162a2.253,2.253,0,0,0,1.292-.68s2.981-2.584,3.889,4.08C16.982,15.881,17.241,19.961,15.038,19.961ZM10.5,11.312c-1.8,0-3.251-.64-3.251-2.661A3.473,3.473,0,0,1,10.5,4.992a3.473,3.473,0,0,1,3.251,3.659C13.752,10.672,12.3,11.312,10.5,11.312ZM17.5,5H26.5A1.5,1.5,0,0,1,28,6.5V6.5A1.5,1.5,0,0,1,26.5,8H17.5A1.5,1.5,0,0,1,16,6.5V6.5A1.5,1.5,0,0,1,17.5,5Zm3,11.969H26.5a1.5,1.5,0,0,1,1.5,1.5v0.006a1.5,1.5,0,0,1-1.5,1.5H20.5a1.5,1.5,0,0,1-1.5-1.5V18.466A1.5,1.5,0,0,1,20.5,16.969ZM18.5,10.979h8a1.5,1.5,0,1,1,0,2.994h-6a1.5,1.5,0,0,1-1.5-1.5C19,11.649,17.674,10.979,18.5,10.979Z"/>
</svg>
