<svg xmlns="http://www.w3.org/2000/svg" width="32" height="24" viewBox="0 0 32 24">
  <defs>
    <style>
      .cls-1 {
        fill: #fff;
        fill-rule: evenodd;
      }
    </style>
  </defs>
  <path id="overlay-invite" class="cls-1" d="M25.5,14H22v3.5a1.5,1.5,0,0,1-3,0V14H15.5a1.5,1.5,0,0,1,0-3H19V7.5a1.5,1.5,0,0,1,3,0V11h3.5A1.5,1.5,0,0,1,25.5,14Zm-15-2.667c-1.8,0-3.25-.642-3.25-2.667A3.477,3.477,0,0,1,10.5,5a3.477,3.477,0,0,1,3.25,3.667C13.75,10.692,12.295,11.333,10.5,11.333ZM7.9,12a5.057,5.057,0,0,0,2.6.667l1.3-.162a1.977,1.977,0,0,0,.2-0.041V14a2,2,0,0,0,2,2h2.983c0.022,0.571.072,4-1.948,4H5.95C3.74,20,4,16,4,16,4.91,9.467,7.9,12,7.9,12Z"/>
</svg>
