<svg xmlns="http://www.w3.org/2000/svg" width="32" height="24" viewBox="0 0 32 24">
  <defs>
    <style>
      .cls-1 {
        fill: #fff;
        fill-rule: evenodd;
      }
    </style>
  </defs>
  <path id="overlay-inventory" class="cls-1" d="M14,20l-1-3V16H6a1.959,1.959,0,0,1-2-2v3c0,2.833,3,3,3,3h7Zm11,0a2.793,2.793,0,0,0,3-3V14a1.959,1.959,0,0,1-2,2H19v1l-1,3h7Zm-8-5.5c0,1.381-.448,3.5-1,3.5s-1-2.119-1-3.5a5.263,5.263,0,0,1,.2-1.5H16.8A5.267,5.267,0,0,1,17,14.5Zm8-.5H19V12a6.075,6.075,0,0,0-2.937-1A6.611,6.611,0,0,0,13,12v2H7c-2.333-.167-2-4-2-4V8L6,5H26l1,3v2S27.333,13.833,25,14Z"/>
</svg>
