<svg xmlns="http://www.w3.org/2000/svg" width="422" height="74" viewBox="0 0 422 74">
  <defs>
    <style>
      .cls-1 {
        fill: #fff;
        fill-rule: evenodd;
      }
    </style>
  </defs>
  <path id="logotype" class="cls-1" d="M422,6a6,6,0,0,0-6-6H384a6,6,0,0,0-6,6V70a2.988,2.988,0,0,0,1.446,2.554A2.986,2.986,0,0,0,382,74h37a3,3,0,0,0,3-3V67a3,3,0,0,0-3-3H397.708L396,62.287V55h15a3,3,0,0,0,3-3V48a3,3,0,0,0-3-3H396V29.713L397.708,28H419a3,3,0,0,0,3-3V6ZM365,74a3,3,0,0,0,3-3V6a6,6,0,0,0-6-6H330a6,6,0,0,0-6,6V71a3,3,0,0,0,3,3h38ZM342,64h6.291L350,62.287V29.713L348.291,28H342V64ZM255,34a3,3,0,0,1-3,3H240a3,3,0,0,1-3-3V29.713L235.291,28h-4.582L229,29.713V62.287L230.709,64H251a3,3,0,0,1,3,3v4a3,3,0,0,1-3,3H214a3,3,0,0,1-3-3V6a6,6,0,0,1,6-6h32a6,6,0,0,1,6,6V34ZM140,0a6,6,0,0,1,6,6l6,65a3,3,0,0,1-3,3H136a3,3,0,0,1-3-3l-0.226-2.442L131.291,67h-8.582l-1.484,1.558L121,71a3,3,0,0,1-3,3H105a3,3,0,0,1-3-3l6-65a6,6,0,0,1,6-6h26ZM129.079,28.527a4.366,4.366,0,0,0-4.159,0l-2.5,27.06L123.709,57h6.582l1.286-1.414ZM302,0a6,6,0,0,1,6,6l6,65a3,3,0,0,1-3,3H298a3,3,0,0,1-3-3l-0.225-2.442L293.291,67h-8.582l-1.484,1.558L283,71a3,3,0,0,1-3,3H267a3,3,0,0,1-3-3l6-65a6,6,0,0,1,6-6h26ZM291.079,28.527a4.366,4.366,0,0,0-4.159,0l-2.5,27.06A5.936,5.936,0,0,1,285.709,57h6.582a5.965,5.965,0,0,1,1.286-1.414ZM98,25a3,3,0,0,1-3,3H86.816L85,29.816V71a3,3,0,0,1-3,3H70a3,3,0,0,1-3-3V29.816L65.184,28H57a3,3,0,0,1-3-3V6a6,6,0,0,1,6-6H92a6,6,0,0,1,6,6V25ZM0,6A6,6,0,0,1,6,0H38a6,6,0,0,1,6,6V34a3,3,0,0,1-3,3H29a3,3,0,0,1-3-3V29.713L24.291,28H19.708L18,29.713V43.422L19.569,45H39a5,5,0,0,1,5,5V71a3,3,0,0,1-3,3H3a3,3,0,0,1-3-3V67a3,3,0,0,1,3-3H24.291L26,62.287V56.713L24.291,55H3a3,3,0,0,1-3-3V6ZM198.5,74H183L159,55l-0.081-.244A3.441,3.441,0,0,1,157.033,52H157V42a3,3,0,0,1,3-3h21.3l1.7-1.713V29.713A5.8,5.8,0,0,1,181.291,28H160a3,3,0,0,1-3-3V6a6,6,0,0,1,6-6h32a6,6,0,0,1,6,6V46a3,3,0,0,1-3,3H184c-3.75,0-3,2-3,2s20,19.817,20,21c0,1.2-2,2-2,2"/>
</svg>
