<svg xmlns="http://www.w3.org/2000/svg" width="456" height="456" viewBox="0 0 456 456">
  <defs>
    <style>
      .cls-1 {
        fill: #f33256;
      }

      .cls-1, .cls-2 {
        fill-rule: evenodd;
      }

      .cls-2 {
        fill: #fff;
      }
    </style>
  </defs>
  <path id="color" class="cls-1" d="M398.764,368.129c-4.731,3.714-7.2,1.562-8.41-.718L379,301.166s-1.824-7.411,2.322-11.529l55.027-51.977c5.17-2.9,6.437,2.16,6.729,4.175A213.29,213.29,0,0,1,398.764,368.129Zm2.071-244.462-68.278-10.431s-10.781-1.153-13.932-8.071L286.363,38.244c-1.2-4.5,1.465-5.784,4.157-6.019a215.445,215.445,0,0,1,114.647,83.65l-0.053-.031C408.37,121.6,403.992,123.218,400.835,123.667Zm-111.472,319.6,0.171,0.033a216.27,216.27,0,0,1-122.851.027l0.36-.07s-7.8-3.063-2.8-7.976l53.373-27.733c5.731-3.958,10.449-3.613,10.449-3.613s4.719-1.093,10.45,3.613l53.559,27.83C297.215,440.233,289.363,443.266,289.363,443.266ZM137.5,105.165c-3.151,6.918-13.932,8.071-13.932,8.071L55.29,123.667c-3.157-.449-7.535-2.069-4.279-7.823l-0.053.031A215.459,215.459,0,0,1,164.906,32.432c2.663,0.009,5.776.842,5.355,4.777Zm-60.374,196L65.518,368.889c-1.346,1.79-3.692,2.9-7.633-.078a213.287,213.287,0,0,1-44.818-125.95c0.118-1.306,1.1-8.8,7.866-4.11L74.8,289.637C78.95,293.755,77.126,301.166,77.126,301.166Z"/>
  <path id="star" class="cls-2" d="M446,204l-85,78c-3.571,3.571-2,10-2,10l13,82c6.19,25.9,4,35,4,35-4,28.429-32,29-32,29-10.857,0-21-5-21-5l-86-47a30.435,30.435,0,0,0-9-3,30.435,30.435,0,0,0-9,3l-86,47s-10.143,5-21,5c0,0-28-.571-32-29,0,0-2.19-9.1,4-35l13-82s1.571-6.429-2-10L10,204A38.791,38.791,0,0,1,0,178s0.286-15,7-21c0,0,6.429-9.143,23-12l108-16s9.286-1,12-7l45-96s9.714-24,33-24,33,24,33,24l45,96c2.714,6,12,7,12,7l108,16c16.571,2.857,23,12,23,12,6.714,6,7,21,7,21A38.791,38.791,0,0,1,446,204Zm-255.094-2.382C189.313,177.707,167.584,176,167.584,176c-27.694,0-29.151,24.372-29.151,24.372-0.059.258-.115,0.533-0.171,0.815a253.535,253.535,0,0,1,27.68,34.647s7.3,9.67-1.585,12.611c0,0-10.036,4.453-28.808,5.666a441.714,441.714,0,0,0,4.341,58.411C141.348,330,167.584,330,167.584,330c22.579-.921,23.322-17.157,23.322-24.574,0,0-1.458-27.362-1.458-55.048C189.448,224.786,190.906,201.618,190.906,201.618ZM321,244.712c-0.824-9.273-.748-34.82-2.915-44.34,0,0-1.458-24.372-29.152-24.372,0,0-20.61,1.629-23.15,23.815a255.267,255.267,0,0,1,28.994,36.019s7.3,9.67-1.584,12.611c0,0-9.089,4.029-26.132,5.466-0.114,26.433-1.449,51.515-1.449,51.515,0,7.417.743,23.653,23.321,24.574,0,0,26.237,0,27.694-17.478A446.05,446.05,0,0,0,321,249.01v-4.3Z"/>
</svg>
