<svg xmlns="http://www.w3.org/2000/svg" width="40" height="40" viewBox="0 0 40 40">
  <defs>
    <style>
      .cls-1 {
        fill: #20d7e7;
        fill-rule: evenodd;
      }
    </style>
  </defs>
  <path id="social_facebook-roll" class="cls-1" d="M34.081,36h-8.02V23.98h5.013V18.972H26.061V14.966a1.963,1.963,0,0,1,2.005-2h3.008V7.954H26.061c-5.013,0-5.013,6.01-5.013,6.01v5.008H16.035V23.98h5.013V36H6.01a2,2,0,0,1-2.005-2V5.951a2,2,0,0,1,2.005-2H34.081a2,2,0,0,1,2.005,2V34A2,2,0,0,1,34.081,36Z"/>
</svg>
