<svg xmlns="http://www.w3.org/2000/svg" width="40" height="40" viewBox="0 0 40 40">
  <defs>
    <style>
      .cls-1 {
        fill: #fff;
        fill-rule: evenodd;
      }
    </style>
  </defs>
  <path id="social-discord" class="cls-1" d="M23.92,7.436L24.174,7s3.478-.347,9.076,3.3c0,0,4.75,6.682,4.75,17.882,0,0-4.241,5.209-9.754,4.775l-2.29-1.6s4.241-2.649,5.6-4.907c0,0-4.022,3.612-11.384,3.723V30.2c-7.549,0-11.723-3.738-11.723-3.738,1.357,2.26,5.6,4.912,5.6,4.912l-2.29,1.608C6.241,33.417,2,28.2,2,28.2,2,16.989,6.75,10.3,6.75,10.3c5.6-3.651,9.076-3.3,9.076-3.3L16.08,7.428l-0.138.043c-6.335,1.99-7.175,4.3-7.175,4.3A23.4,23.4,0,0,1,19.99,9.007a27.836,27.836,0,0,1,12.242,2.77S28,8.1,23.92,7.436ZM12.99,17.007a4,4,0,1,1-4,4A4,4,0,0,1,12.99,17.007Zm14,0a4,4,0,1,1-4,4A4,4,0,0,1,26.99,17.007Z"/>
</svg>
