<svg xmlns="http://www.w3.org/2000/svg" width="40" height="40" viewBox="0 0 40 40">
  <defs>
    <style>
      .cls-1 {
        fill: #20d7e7;
        fill-rule: evenodd;
      }
    </style>
  </defs>
  <path id="social_contact-roll" class="cls-1" d="M35.606,32.208l-8.075-9.421L33,19,20,8,7,19l5.469,3.786L4.394,32.208A2.694,2.694,0,0,1,4,31V17L20,4,36,17V31A2.694,2.694,0,0,1,35.606,32.208ZM20,28l5.085-3.52,7.831,10.678A3.721,3.721,0,0,1,31,36H9a3.721,3.721,0,0,1-1.915-.843l7.83-10.678Zm0-3-8-6V17H28v2Z"/>
</svg>
