<svg xmlns="http://www.w3.org/2000/svg" width="40" height="40" viewBox="0 0 40 40">
  <defs>
    <style>
      .cls-1 {
        fill: #fff;
        fill-rule: evenodd;
      }
    </style>
  </defs>
  <path id="social_youtube" class="cls-1" d="M32.437,33.369A34.212,34.212,0,0,1,26.564,34H13.436a34.21,34.21,0,0,1-5.872-.631,6.074,6.074,0,0,1-4.532-3.95,35.261,35.261,0,0,1,0-16.838,6.074,6.074,0,0,1,4.532-3.95A26.114,26.114,0,0,1,13.436,8H26.564a30.932,30.932,0,0,1,5.873.631,6.075,6.075,0,0,1,4.532,3.95,35.265,35.265,0,0,1,0,16.838A6.075,6.075,0,0,1,32.437,33.369ZM15,25s0.083,3.583,3,2l7-5a1.159,1.159,0,0,0,0-2l-7-5s-3-1.833-3,2v8Z"/>
</svg>
