<svg xmlns="http://www.w3.org/2000/svg" width="40" height="40" viewBox="0 0 40 40">
  <defs>
    <style>
      .cls-1 {
        fill: #20d7e7;
        fill-rule: evenodd;
      }
    </style>
  </defs>
  <path id="social_discord-roll" class="cls-1" d="M23.928,7.434L24.182,7s3.478-.347,9.075,3.3c0,0,4.75,6.677,4.75,17.868,0,0-4.241,5.205-9.754,4.771l-2.29-1.6s4.241-2.648,5.6-4.9c0,0-4.022,3.61-11.383,3.72v0.031c-7.549,0-11.722-3.735-11.722-3.735,1.357,2.258,5.6,4.908,5.6,4.908l-2.29,1.607c-5.513.434-9.754-4.777-9.754-4.777,0-11.2,4.75-17.891,4.75-17.891,5.6-3.648,9.075-3.3,9.075-3.3l0.254,0.434-0.138.043c-6.335,1.988-7.174,4.3-7.174,4.3A23.416,23.416,0,0,1,20,9,27.851,27.851,0,0,1,32.24,11.771S28.011,8.1,23.928,7.434ZM13,17.007A3.99,3.99,0,1,1,9.013,21,3.99,3.99,0,0,1,13,17.007Zm13.995,0A3.99,3.99,0,1,1,23.008,21,3.99,3.99,0,0,1,27,17.007Z"/>
</svg>
