<svg xmlns="http://www.w3.org/2000/svg" width="40" height="40" viewBox="0 0 40 40">
  <defs>
    <style>
      .cls-1 {
        fill: #fff;
        fill-rule: evenodd;
      }
    </style>
  </defs>
  <path id="social_reddit" class="cls-1" d="M33.113,14.439a3.92,3.92,0,0,1,2.229,7.121,8.68,8.68,0,0,1,.533,2.951c0,6.34-6.958,11.48-15.541,11.48-9.721,0-15.541-5.14-15.541-11.48a8.639,8.639,0,0,1,.427-2.628,3.916,3.916,0,0,1,1.668-7.444A7.936,7.936,0,0,1,10.6,15.585a18.851,18.851,0,0,1,8.586-2.511L20.46,5.519l-0.148-.04C20.619,4.169,21.132,4,22.322,4L28.283,5.3a3.334,3.334,0,0,1,1.9-.592,3.257,3.257,0,0,1,3.3,3.214,3.294,3.294,0,0,1-6.564.312L23.209,7.136l-1.57,5.944a18.957,18.957,0,0,1,8.112,2.31A7.761,7.761,0,0,1,33.113,14.439ZM26.286,29.989a0.892,0.892,0,0,0-1.1-.436,15.526,15.526,0,0,1-9.864,0,0.893,0.893,0,0,0-1.1.436,0.841,0.841,0,0,0,.566,1.048,11.51,11.51,0,0,0,10.942,0A0.848,0.848,0,0,0,26.286,29.989Zm1.972-1.837a2.94,2.94,0,1,1,2.914-2.939A2.927,2.927,0,0,1,28.257,28.152Zm-15.543,0a2.94,2.94,0,1,1,2.914-2.939A2.927,2.927,0,0,1,12.714,28.152Z"/>
</svg>
