<svg xmlns="http://www.w3.org/2000/svg" width="40" height="40" viewBox="0 0 40 40">
  <defs>
    <style>
      .cls-1 {
        fill: #20d7e7;
        fill-rule: evenodd;
      }
    </style>
  </defs>
  <path id="social_twitter-roll" class="cls-1" d="M37.21,5.8a8.965,8.965,0,0,1-2.969,3.945,12.687,12.687,0,0,0,3.747-1.076,9.835,9.835,0,0,1-3.322,3.873S35.23,29.252,19.89,34.058A21.989,21.989,0,0,1,2,31.691s7.111,0.286,10.934-3.206l0.023-.022s-6.08-.861-6.857-5.236a11.541,11.541,0,0,0,3.111-.072s-6.009-1.65-5.726-7.6a7.109,7.109,0,0,0,3.252,1.076S1.439,13.615,4.408,6.37c0,0,6.928,8.034,15.34,7.89,0,0-1.343-6.6,4.666-8.751a7.453,7.453,0,0,1,8.2,1.865A24.939,24.939,0,0,0,37.21,5.8Z"/>
</svg>
