<svg id="allstar_badge" data-name="allstar badge" xmlns="http://www.w3.org/2000/svg" width="60" height="60" viewBox="0 0 60 60">
  <defs>
    <style>
      .cls-1, .cls-3 {
        fill: #fff;
      }

      .cls-1, .cls-2, .cls-3, .cls-4 {
        fill-rule: evenodd;
      }

      .cls-1 {
        opacity: 0.5;
      }

      .cls-2 {
        fill: #20d7e7;
      }

      .cls-4 {
        fill: #ec445f;
      }
    </style>
  </defs>
  <path id="bg" class="cls-1" d="M54.968,43.282A0.179,0.179,0,0,1,55,43.5c-1.75,4.016-2.672,4.5-3.5,4.5A1.5,1.5,0,0,1,50,46.5a2.927,2.927,0,0,1,.853-1.648A23.994,23.994,0,1,0,6,33,23.8,23.8,0,0,0,9.251,45.01,2.014,2.014,0,0,1,10,46.5,1.5,1.5,0,0,1,8.5,48a2.578,2.578,0,0,1-1.759-1.4L6.7,46.625A26.993,26.993,0,1,1,54.968,43.282Z"/>
  <path id="stars" class="cls-2" d="M37.742,18.162L34.836,20.28a0.515,0.515,0,0,0-.052.4l0.666,3.454a4.657,4.657,0,0,1,.24,1.553,1.265,1.265,0,0,1-1.169,1.324,1.907,1.907,0,0,1-.825-0.231l-3.348-3.176a1.041,1.041,0,0,0-.338-0.13,1.04,1.04,0,0,0-.338.13l-3.348,3.176a1.907,1.907,0,0,1-.825.231,1.265,1.265,0,0,1-1.169-1.324,4.656,4.656,0,0,1,.24-1.553l0.666-3.454a0.516,0.516,0,0,0-.052-0.4l-2.906-2.118a1.416,1.416,0,0,1-.267-0.99,1.477,1.477,0,0,1,.313-0.784,1.368,1.368,0,0,1,.834-0.442l3.758-.582a0.573,0.573,0,0,0,.42-0.252l1.585-3.323a1.145,1.145,0,0,1,2.178,0l1.585,3.323a0.573,0.573,0,0,0,.42.252l3.758,0.582a1.368,1.368,0,0,1,.834.442,1.477,1.477,0,0,1,.313.784A1.417,1.417,0,0,1,37.742,18.162Zm11.15,10.332a1.059,1.059,0,0,1-.678.526l-3.731.564a0.35,0.35,0,0,0-.22.243L43.3,32.457a2.976,2.976,0,0,1-.474,1.134,1.116,1.116,0,0,1-1.486.231,2.135,2.135,0,0,1-.551-0.581L39.535,31H40l-0.559-.169-0.381-.682a1.118,1.118,0,0,0-.21-0.26,1.079,1.079,0,0,0-.317-0.088l-2.106-.2-0.985-.985a3.483,3.483,0,0,0,1.063-.906A4.063,4.063,0,0,0,38.1,24.766L37.007,21.5a0.517,0.517,0,0,1,.072-0.5l0.709-.616,2.823,1.259a0.558,0.558,0,0,0,.437.033l2.687-1.513a1.243,1.243,0,0,1,1.241-.019,1.183,1.183,0,0,1,.551,1.094l-0.159,3.093a0.576,0.576,0,0,0,.235.386l2.88,2.336a1.38,1.38,0,0,1,.5.739A1.043,1.043,0,0,1,48.891,28.495ZM21.519,29.829a1.088,1.088,0,0,0-.317.088,1.117,1.117,0,0,0-.21.258l-1.731,3.071a2.128,2.128,0,0,1-.552.577,1.125,1.125,0,0,1-1.489-.23,2.942,2.942,0,0,1-.475-1.127L15.78,29.856a0.348,0.348,0,0,0-.221-0.241l-3.739-.56a1.061,1.061,0,0,1-.68-0.523,1.028,1.028,0,0,1-.1-0.693A1.369,1.369,0,0,1,11.55,27.1l2.886-2.32a0.572,0.572,0,0,0,.236-0.383l-0.16-3.072a1.171,1.171,0,0,1,.552-1.087,1.255,1.255,0,0,1,1.244.019L19,21.764a0.563,0.563,0,0,0,.438-0.033l2.724-1.2,1.2,0.973-1.093,3.266c0.115,2.5,1.046,3.619,2.053,4.087l-0.785.785Z"/>
  <path id="crown" class="cls-3" d="M42.55,38.065l3.407-4.219a15.979,15.979,0,0,1-31.914.009l3.4,4.21,6.639-6.427L30,27.006l5.915,4.631ZM29.993,29.011L21,38.388l8.994,8.623,8.994-8.623Z"/>
  <path id="red" class="cls-4" d="M30,33.009L34.991,38,30,42.991,25.009,38Z"/>
</svg>
