<svg xmlns="http://www.w3.org/2000/svg" width="56" height="46" viewBox="0 0 56 46">
  <defs>
    <style>
      .cls-1, .cls-2 {
        fill: #2d899d;
        fill-rule: evenodd;
      }

      .cls-1 {
        opacity: 0.5;
      }
    </style>
  </defs>
  <path id="ring" class="cls-1" d="M8,41.5A1.5,1.5,0,0,1,6.5,43c-0.828,0-1.8-1.375-1.8-1.375A27,27,0,1,1,55,28a26.857,26.857,0,0,1-3.547,13.375S50.328,43,49.5,43A1.5,1.5,0,0,1,48,41.5a3.259,3.259,0,0,1,.844-1.632A23.994,23.994,0,1,0,4,28,23.814,23.814,0,0,0,7.311,40.119,2.952,2.952,0,0,1,8,41.5Z"/>
  <path id="icon" class="cls-2" d="M18.339,20.232l-0.13-3.182-1.079-1.1-4.888.133L12.281,24.3l2.561,0.013-0.091-2.7,2.886-.186Zm-3.653-1.976,0.117-.146,1.235,0.026,0.039,1.551-1.378.093Zm7.478-2.32-2.652.119c0,0.318-.065,7.068-0.065,7.068l-0.052,1.034,4.914,0.119,0.065-2.493-2.392.066Zm8.59,3.169-1.885-3.143-2.288.093L24.956,19.49l-0.338,4.747,2.236,0.04,0.065-1.419,1.859-.159,0.13,1.644,2.34-.106ZM27.01,20.869l0.117-1.193,0.676-1.5,0.7,1.525L28.6,20.776Zm7.925,1.14,0.117-3.819,2.353-.04-0.091-2.268-4.758.371,0.039,7.8L37.7,24.316V21.85Zm8.655,0.066-2.886.08-0.013-1.114,1.976,0.026,0.026-1.949-1.885.013,0.026-1.061,2.47-.013,0.052-2.108-4.42.093-0.494.345-0.052,7.8,5.122,0.04Zm-31.8,12.987,2.6-.08-0.065-4.641V26.563l-2.574.106,0.013,3.09-1.534.119-0.065-3.036H7.783L7.8,34.784h2.418L10.2,31.973l1.573-.066Zm9.454-8.354-5.59.093-0.2,7.863,2.288,0.265,3.835-.159,0.273-1.5Zm-3.536,5.954,0.065-3.686,1.443,0.08,0.169,3.54Zm7.92-6.007-2.652.119c0,0.318-.065,7.067-0.065,7.067l-0.052,1.034L27.771,35,27.836,32.5l-2.392.066Zm7.446-.013-4.693.159,0.169,8,4.68,0.066,1.5-1.843L34.879,28.3Zm-2.2,6.033,0.013-3.753,1.521,0.133,0.013,3.434ZM41.008,32.8l-2.886.079-0.013-1.114,1.976,0.027,0.026-1.949-1.885.013,0.026-1.061,2.47-.013,0.052-2.108-4.42.093-0.494.345-0.052,7.8,5.122,0.04Zm5.441,2.44,2.327-1.061-1.6-2.334,0.871-.451-0.2-4.442-1.963-.332-3.9.239,0.091,8.168,2.535-.04L44.5,32.424l0.429-.093Zm-2.184-6.524,1.365-.027-0.013,1.737-1.326.106ZM16.5,10h23a1.5,1.5,0,0,1,0,3h-23A1.5,1.5,0,0,1,16.5,10Zm0,28h23a1.5,1.5,0,0,1,0,3h-23A1.5,1.5,0,0,1,16.5,38Z"/>
</svg>
