<svg xmlns="http://www.w3.org/2000/svg" width="60" height="60" viewBox="0 0 60 60">
  <defs>
    <style>
      .cls-1, .cls-2 {
        fill: #fff;
        fill-rule: evenodd;
      }

      .cls-1 {
        opacity: 0.5;
      }
    </style>
  </defs>
  <path id="bg" class="cls-1" d="M54.968,43.282A0.179,0.179,0,0,1,55,43.5c-1.75,4.016-2.672,4.5-3.5,4.5A1.5,1.5,0,0,1,50,46.5a2.927,2.927,0,0,1,.853-1.648A23.994,23.994,0,1,0,6,33,23.8,23.8,0,0,0,9.251,45.01,2.014,2.014,0,0,1,10,46.5,1.5,1.5,0,0,1,8.5,48a2.578,2.578,0,0,1-1.759-1.4L6.7,46.625A26.993,26.993,0,1,1,54.968,43.282Z"/>
  <path id="death" class="cls-2" d="M48,31.7c0,7.468-7.693,9.58-13.019,10.147A4.869,4.869,0,0,0,34,44.688,2.693,2.693,0,0,1,31.5,46h-3A2.693,2.693,0,0,1,26,44.688a4.869,4.869,0,0,0-.978-2.839C19.7,41.282,12,39.17,12,31.7c0,0-.375-6.141,5.5-11.3,0,0,3.859-4.4,12.5-4.4h0c8.637,0,12.5,4.4,12.5,4.4C48.37,25.562,48,31.7,48,31.7ZM21,29a4,4,0,1,0,4,4A4,4,0,0,0,21,29Zm10.474,7.59L30,35.164,28.526,36.59A6.8,6.8,0,0,0,28,39.1l2,0.492,2-.492A6.8,6.8,0,0,0,31.474,36.59ZM39,29a4,4,0,1,0,4,4A4,4,0,0,0,39,29Z"/>
</svg>
