<svg xmlns="http://www.w3.org/2000/svg" width="60" height="60" viewBox="0 0 60 60">
  <defs>
    <style>
      .cls-1, .cls-3 {
        fill: #fff;
      }

      .cls-1, .cls-2, .cls-3 {
        fill-rule: evenodd;
      }

      .cls-1, .cls-2 {
        opacity: 0.5;
      }

      .cls-2 {
        fill: #c2c2c2;
      }
    </style>
  </defs>
  <path id="bg_copy" data-name="bg copy" class="cls-1" d="M54.968,43.282A0.179,0.179,0,0,1,55,43.5c-1.75,4.016-2.672,4.5-3.5,4.5A1.5,1.5,0,0,1,50,46.5a2.927,2.927,0,0,1,.853-1.648A23.994,23.994,0,1,0,6,33,23.8,23.8,0,0,0,9.251,45.01,2.014,2.014,0,0,1,10,46.5,1.5,1.5,0,0,1,8.5,48a2.578,2.578,0,0,1-1.759-1.4L6.7,46.625A26.993,26.993,0,1,1,54.968,43.282Z"/>
  <path id="transparent" class="cls-2" d="M43.263,24.667L41.368,21l-3.789,2.5L39.947,28Zm-26.526,0L18.632,21l3.79,2.5L20.053,28Z"/>
  <path id="crown" class="cls-3" d="M48,22L47.053,35S44.684,38,30,38s-17.053-3-17.053-3L12,22l7.579,7v2L30,16,40.421,31V29ZM30,24c-1.047,0-2.895,2.757-2.895,4A3.885,3.885,0,0,0,30,31a3.885,3.885,0,0,0,2.895-3C32.895,26.757,31.046,24,30,24Zm0,17s13.641-.007,16.645-3.43L47.053,38v1l-0.947,2-0.947,1C38.932,44.286,30,44,30,44s-8.932.286-15.158-2l-0.947-1-0.947-2V38l0.408-.43C16.359,40.993,30,41,30,41Z"/>
</svg>
