<svg xmlns="http://www.w3.org/2000/svg" width="60" height="60" viewBox="0 0 60 60">
  <defs>
    <style>
      .cls-1, .cls-2 {
        fill: #fff;
        fill-rule: evenodd;
      }

      .cls-1 {
        opacity: 0.5;
      }
    </style>
  </defs>
  <path id="bg" class="cls-1" d="M54.062,45.227A0.653,0.653,0,0,1,54,45.5c-1.312,2.266-1.672,2.5-2.5,2.5A1.5,1.5,0,0,1,50,46.5a4.9,4.9,0,0,1,1.034-1.989A23.887,23.887,0,0,0,53.7,36.672,2.672,2.672,0,0,0,51,35H47a2,2,0,0,1,0-4h4a3.946,3.946,0,0,0,2.737-1.364A23.987,23.987,0,0,0,33.657,9.3,2.673,2.673,0,0,0,32,12v4a2,2,0,1,1-4,0V12a3.942,3.942,0,0,0-1.368-2.74A23.984,23.984,0,0,0,6.263,29.636,3.946,3.946,0,0,0,9,31h4a2,2,0,0,1,0,4H9a2.672,2.672,0,0,0-2.706,1.674,23.892,23.892,0,0,0,3.016,8.444l-0.02.012A2.228,2.228,0,0,1,10,46.5,1.5,1.5,0,0,1,8.5,48c-0.828,0-1.383-.383-2.5-2.5a1.1,1.1,0,0,1-.12-0.385A27,27,0,1,1,57,33,26.842,26.842,0,0,1,54.062,45.227ZM48.5,21A1.5,1.5,0,1,1,47,22.5,1.5,1.5,0,0,1,48.5,21Zm-4-4A1.5,1.5,0,1,1,43,18.5,1.5,1.5,0,0,1,44.5,17Zm-4-4A1.5,1.5,0,1,1,39,14.5,1.5,1.5,0,0,1,40.5,13Zm-5-2A1.5,1.5,0,1,1,34,12.5,1.5,1.5,0,0,1,35.5,11Zm15,15A1.5,1.5,0,1,1,49,27.5,1.5,1.5,0,0,1,50.5,26Zm0,11A1.5,1.5,0,1,1,49,38.5,1.5,1.5,0,0,1,50.5,37Zm-2,5A1.5,1.5,0,1,1,47,43.5,1.5,1.5,0,0,1,48.5,42Zm-37-21A1.5,1.5,0,1,1,10,22.5,1.5,1.5,0,0,1,11.5,21Zm8-8A1.5,1.5,0,1,1,18,14.5,1.5,1.5,0,0,1,19.5,13Zm5-2A1.5,1.5,0,1,1,23,12.5,1.5,1.5,0,0,1,24.5,11ZM9.5,26A1.5,1.5,0,1,1,8,27.5,1.5,1.5,0,0,1,9.5,26Zm0,11A1.5,1.5,0,1,1,8,38.5,1.5,1.5,0,0,1,9.5,37Zm2,5A1.5,1.5,0,1,1,10,43.5,1.5,1.5,0,0,1,11.5,42Z"/>
  <path id="timeplayed" class="cls-2" d="M26.783,35.663L13.808,18.27l0.421-.879,1.336-.452L30.377,28.846Zm3.9-7.8L43.667,24.79a1.39,1.39,0,0,1,1.995.318s0.954,1.254-.319,1.839L32.9,38.006M30,27a6,6,0,1,1-6,6A6,6,0,0,1,30,27Zm0,2a4,4,0,1,1-4,4A4,4,0,0,1,30,29Z"/>
</svg>
