<svg xmlns="http://www.w3.org/2000/svg" width="40" height="40" viewBox="0 0 40 40">
  <defs>
    <style>
      .cls-1 {
        fill: #fff;
      }

      .cls-1, .cls-2 {
        fill-rule: evenodd;
      }

      .cls-2 {
        fill: #c2c2c2;
        opacity: 0.5;
      }
    </style>
  </defs>
  <path id="crown" class="cls-1" d="M38,12L37.053,25S34.684,28,20,28,2.947,25,2.947,25L2,12l7.579,7v2L20,6,30.421,21V19ZM20,14c-1.047,0-2.895,2.757-2.895,4A3.885,3.885,0,0,0,20,21a3.885,3.885,0,0,0,2.895-3C22.895,16.757,21.046,14,20,14Zm0,17s13.641-.007,16.645-3.43L37.053,28v1l-0.947,2-0.947,1C28.932,34.286,20,34,20,34s-8.932.286-15.158-2L3.895,31,2.947,29V28l0.408-.43C6.359,30.993,20,31,20,31Z"/>
  <path id="transparent" class="cls-2" d="M33.263,14.667L31.368,11l-3.79,2.5L29.947,18Zm-26.526,0L8.632,11l3.789,2.5L10.053,18Z"/>
</svg>
