<svg xmlns="http://www.w3.org/2000/svg" width="244" height="86" viewBox="0 0 244 86">
  <defs>
    <style>
      .cls-1 {
        fill: #011417;
        opacity: 0.75;
      }

      .cls-1, .cls-2, .cls-3 {
        fill-rule: evenodd;
      }

      .cls-2 {
        fill: #fa4c6d;
      }

      .cls-3 {
        fill: #fff;
      }
    </style>
  </defs>
  <path id="shadow" class="cls-1" d="M8.7,69.748c26.416-.919,56.835-1.38,85.519-1.567l1.791,2.425,2.08,5.549a2.577,2.577,0,0,1,.221,1.986,4.459,4.459,0,0,1-1.619,1.58C48.807,79.623,5.7,79.388,5.7,79.388S0.25,78.265,1,75.1C0.543,69.914,8.7,69.748,8.7,69.748Zm226.465,0c-26.542-.958-83.108-0.438-111.929-0.632l-1.8,1.484-2.09,5.778a2.77,2.77,0,0,0-.223,2.068,4.552,4.552,0,0,0,1.628,1.645c48.116-.1,117.429-1.345,117.429-1.345s5.477-1.169,4.724-4.465C242.762,69.924,235.167,69.752,235.167,69.752ZM243,23.14c0,3.248-5.467,4.584-5.467,4.584s-70.042-.282-131.769-0.351a2.692,2.692,0,0,1-1.757-.619,5.556,5.556,0,0,1-1.726-2.589l-0.859-4.822A2.273,2.273,0,0,1,102,17.767l1.544-1.544,133.991,2.1C243.533,18.319,243,23.14,243,23.14ZM0,22.328c0.5,4.9,5.482,4.8,5.482,4.8s12.243,0.7,74.147.632a21.5,21.5,0,0,0,2.762-1.648c1.244-.966.732-1.713,0.732-1.713l-1.139-4.052a14.808,14.808,0,0,0-1.578-2.65,4.462,4.462,0,0,0-1.548-.57l-72.375.149C0.465,17.278,0,22.328,0,22.328ZM111.168,55.114h-1.234S107.885,45.62,103,30.134A113.142,113.142,0,0,0,91.068,4.565C86.235-2.264,79.832,2.817,79.832,2.817c-3.865,2.429-.564,7.978-0.564,7.978S86.851,33.078,100,79.856c0,0,1.512,5.871,8.83,5.871a9.1,9.1,0,0,0,7.8-4.106s2.069-3.77,9.743-24.934c2.234-4.865,3.512-6.14,1.623-8.686-1.868-2.517,3,2.106,3,2l2,1.518,3,2.6c-1.625.791-6,1-6,1l-3,1-3,7.993,1,3,2,2h22s8-.541,8-7.994V52.118c-0.333-3.343-4-6-4-6l-6-4h2a8.779,8.779,0,0,0,4.333-1.332A7.632,7.632,0,0,0,156,36.13v-4c-0.167-5.663-5-5-5-5H123a7.145,7.145,0,0,0-5.433,4.76S114,44.621,111.168,55.114Z"/>
  <path id="lines" class="cls-2" d="M241,22.14c0,3.248-7.467,2.585-7.467,2.585s-67.042-.282-128.769-0.351l-1.222-6.152,131.991,1.1C241.533,19.319,241,22.14,241,22.14ZM81.017,24.36c-34.051,0-63.208.088-73.616,0.366,0,0-5.444.745-4.933-4.467A3.132,3.132,0,0,1,3.925,19,16.159,16.159,0,0,1,6.7,18.084l72.476,0.049ZM9.7,71.747c26.416-.92,55.835-1.38,84.519-1.567l2.473,6.542C48.807,76.625,7.7,76.39,7.7,76.39S1.5,76.766,3,74.1C4,71.77,9.7,71.747,9.7,71.747Zm227.6-.705,2.467,1.234L241,74.686l-3.7,1.234c-17.253.723-67.4,0.879-116.447,0.837l2.718-6.68C185.5,70.035,237.3,71.042,237.3,71.042Z"/>
  <path id="vs" class="cls-3" d="M153,37.129l-2,2-11,1,11,6s3.667,1.654,4,5c0,0-.082,7.061-0.2,8.583-0.292,3.789-.8,4.408-0.8,4.408l-3,2H127l-1-2,2-6,2-1,11-1s3.375-.375,1-2l-9-6.6-8-6.394c0,0.106-4.224-.21-2,2,3.236,3.214,2.853,7.473,2.382,9.622-6.346,14.606-11.748,26.876-11.748,26.876-4.789,5.2-9.633.235-9.633,0.235C90.851,33.08,80.268,6.8,80.268,6.8s-0.634-2.052.564-2.982c2.488-1.931,5.9-.721,5.9-0.721l2.1,1,2.233,2.469S95.44,12.682,100,27.137c4.885,15.485,9.934,34.974,9.934,34.974h1.234s3.5-12.649,5.507-19.773c1.552-5.5,2.892-10.441,2.892-10.441S122,28.136,124,28.136h26s5-1,4,5Z"/>
</svg>
