<svg id="_1" data-name="1" xmlns="http://www.w3.org/2000/svg" width="142" height="120" viewBox="0 0 142 120">
  <defs>
    <style>
      .cls-1 {
        fill: #10303e;
      }

      .cls-1, .cls-2 {
        fill-rule: evenodd;
      }

      .cls-2 {
        fill: #62f2ff;
      }
    </style>
  </defs>
  <path id="_1shadow" data-name="1shadow" class="cls-1" d="M61.276,57.1l5.391-9.819A6.479,6.479,0,0,1,71.889,44h4.667A4.629,4.629,0,0,1,81,48.571V77.714A2.255,2.255,0,0,1,78.778,80H70.222A2.255,2.255,0,0,1,68,77.714V64l-1,2a1.534,1.534,0,0,1-1.437,1A1.679,1.679,0,0,1,64,66l-2.781-4.568A4.622,4.622,0,0,1,61.276,57.1Z"/>
  <path id="_1-2" data-name="1" class="cls-2" d="M62.893,54.728C64.564,51.544,67,47,67,47c1.519-2.931,3.889-3,3.889-3h4.667A3.477,3.477,0,0,1,79,47.571V73.714A2.255,2.255,0,0,1,76.778,76H72.222A2.255,2.255,0,0,1,70,73.714V58.476L67.889,61c-1.889,2.658-3.444.143-3.444,0.143l-1.572-3.031A3.961,3.961,0,0,1,62.893,54.728Z"/>
</svg>
