<svg id="_3" data-name="3" xmlns="http://www.w3.org/2000/svg" width="142" height="120" viewBox="0 0 142 120">
  <defs>
    <style>
      .cls-1 {
        fill: #10303e;
      }

      .cls-1, .cls-2 {
        fill-rule: evenodd;
      }

      .cls-2 {
        fill: #5ff2ff;
      }
    </style>
  </defs>
  <path id="_3shadow" data-name="3shadow" class="cls-1" d="M63,64h5v4H65c-3.875,0-4,4-4,4v5a2.887,2.887,0,0,0,3,3H82a2.938,2.938,0,0,0,3-3V71c0-3.375-2-4-2-4l-2-1c3.938-1.312,4-4,4-4V50c0-5.792-6-6-6-6H68c-6.917,0-7,6-7,6V62A1.933,1.933,0,0,0,63,64Z"/>
  <path id="_3-2" data-name="3" class="cls-2" d="M75,69a1.893,1.893,0,0,1-2,2H72a1.893,1.893,0,0,1-2-2l-1-1H65a1.84,1.84,0,0,0-2,2v3c0,2.75,3,3,3,3H80a2.938,2.938,0,0,0,3-3V69a6.106,6.106,0,0,0-2-4l-2-2a4.963,4.963,0,0,0,4-5V48c0-3.542-4-4-4-4H68a4.648,4.648,0,0,0-5,4V58a1.909,1.909,0,0,0,2,2h4l1-1V55h3s2-.167,2,3v2a2.032,2.032,0,0,1-2,2H71l-1,1v3l1,1h2A1.742,1.742,0,0,1,75,69Z"/>
</svg>
