<svg id="_2" data-name="2" xmlns="http://www.w3.org/2000/svg" width="142" height="120" viewBox="0 0 142 120">
  <defs>
    <style>
      .cls-1 {
        fill: #10303e;
      }

      .cls-1, .cls-2 {
        fill-rule: evenodd;
      }

      .cls-2 {
        fill: #62f2ff;
      }
    </style>
  </defs>
  <path id="_2_shadow" data-name="2 shadow" class="cls-1" d="M65,67c-4.375,2.25-4,6-4,6v5a2.072,2.072,0,0,0,2,2H83a1.855,1.855,0,0,0,2-2V73a1.76,1.76,0,0,0-2-2H79l4-3a4.081,4.081,0,0,0,2-3V51c0-5.979-7-7-7-7H68c-6.146,0-7,7-7,7V63a2.013,2.013,0,0,0,2,2h7"/>
  <path id="_2-2" data-name="2" class="cls-2" d="M83,74.969V72a0.956,0.956,0,0,0-1.031-1H72V70l8-5c3.063-1.719,3-4,3-4V49c0-5.063-5-5-5-5H68c-4.812,0-5,5-5,5V59a1.959,1.959,0,0,0,2,2h4a1.909,1.909,0,0,0,2-2V56.969A0.954,0.954,0,0,1,71.969,56H74a1.011,1.011,0,0,1,1,.969v4A1.612,1.612,0,0,1,74,62l-8,4a6.159,6.159,0,0,0-3,5v3a2.072,2.072,0,0,0,2,2H81.938A0.98,0.98,0,0,0,83,74.969Z"/>
</svg>
