<svg xmlns="http://www.w3.org/2000/svg" width="1112" height="626" viewBox="0 0 1112 626">
  <defs>
    <style>
      .cls-1 {
        fill: blue;
        fill-rule: evenodd;
      }
    </style>
  </defs>
  <path id="collision_balls" class="cls-1" d="M1068,621H44L4,581V43L44,3H1068l40,40V581Zm-26-310V119l1-5,3-6,5-7,9-12,7-6,7-7,5-8,1-4V56l-1-5-2-5-5-7-5-4-6-3-7-1-9,1-6,3-6,4-5,7-7,6-18,12-8,4-6,1H609l-6-1-4-2-2-2L585,50l-4-7-1-4-1-3-3-4-4-4-4-3-4-2-5-1h-6l-5,1-4,2-4,3-4,4-3,4-1,3-1,4-4,7L515,64l-2,2-4,2-6,1H124l-6-1-8-4L91,52l-7-6-5-7-6-4-6-3-9-1-7,1-6,3-5,4-5,7-2,5-1,5v8l1,4,5,8,7,7,7,6,9,12,5,7,3,6,1,5V505l-1,5-3,6-5,7-9,12-7,6-7,7-5,8-1,4v8l1,5,2,5,5,7,5,4,6,3,7,1,9-1,6-3,6-4,5-7,7-6,17-12,8-4,6-1H503l6,1,4,2,2,2,12,14,4,7,1,4,1,3,3,4,4,4,4,3,4,2,5,1h6l5-1,4-2,4-3,4-4,3-4,1-3,1-4,4-7,12-14,2-2,4-2,6-1H991l6,1,8,4,16,12,7,6,5,7,6,4,6,3,9,1,7-1,6-3,5-4,5-7,2-5,1-5v-8l-1-4-5-8-7-7-7-6-9-12-5-7-3-6-1-5V311Z"/>
</svg>
