<svg xmlns="http://www.w3.org/2000/svg" width="1112" height="626" viewBox="0 0 1112 626">
  <defs>
    <style>
      .cls-1 {
        fill: lime;
        fill-rule: evenodd;
      }
    </style>
  </defs>
  <path id="collision_puck" class="cls-1" d="M1125,427h-13V592l-34,34H34L0,592V427H-13V199H0V34L34,0H1078l34,34V199h13V427Zm-18,0h-55l-5,1-2,1-2,2-1,2v74l-1,8-2,9-4,9-5,7-7,7-8,5-9,3-10,1H116l-10-1-9-3-8-5-7-7-5-7-4-9-2-9-1-8V433l-1-2-2-2-2-1-5-1H5V199H60l5-1,2-1,2-2,1-2V119l1-8,2-9,4-9,5-7,7-7,8-5,9-3,10-1H996l10,1,9,3,8,5,7,7,5,7,4,9,2,9,1,8v74l1,2,2,2,2,1,5,1h55V427Z"/>
</svg>
