<svg xmlns="http://www.w3.org/2000/svg" width="56" height="56" viewBox="0 0 56 56">
  <defs>
    <style>
      .cls-1 {
        fill: #fff;
        fill-rule: evenodd;
      }
    </style>
  </defs>
  <path id="Cry" class="cls-1" d="M28,3.031c16.371-.8,26,12.633,26,26.983C54,39.7,47.026,53,28,53,9.307,53,2,40.367,2,30.014,2,15.664,10,3.907,28,3.031ZM12.748,43.776c-4.509-.625-6.371-5.369-5.06-9.639a9.178,9.178,0,0,1,7.129-6.447,6.551,6.551,0,0,1,1.407-.015,4.649,4.649,0,0,0-2.9,3.455,3.566,3.566,0,0,0,3.718,4.163,4.687,4.687,0,0,0,4.488-3.426,7.785,7.785,0,0,1,.455,1.912C22.526,39.287,18.059,44.512,12.748,43.776Zm-2.593-9.7a2.468,2.468,0,0,0-2.023,1.883c-0.309,1.1.15,2.082,1.071,2.124a2.447,2.447,0,0,0,2.167-2.1C11.582,34.883,11.022,34.054,10.155,34.075Zm2.021,4.144-1.226-.056-0.308,1.6,1.27,0.094Zm30.853,5.037c-4.687,0-8.8-4.923-8.482-10.031,0.265-4.282,3.661-6.412,7.2-5.456a7.682,7.682,0,0,1,1.416.556,2.447,2.447,0,0,0-2.213,2.887,5.437,5.437,0,0,0,4.218,4.878,2.349,2.349,0,0,0,2.752-2.333,9.928,9.928,0,0,1,.47,1.616C49.178,39.465,47.046,43.256,43.029,43.256Zm-5.008-9.491A1.825,1.825,0,0,0,35.908,35.6a2.45,2.45,0,0,0,2.128,2.521A1.844,1.844,0,0,0,40.011,36.1,2.481,2.481,0,0,0,38.021,33.764ZM41.4,38.406L40.1,38.3l0.061,1.564,1.331,0.077Zm-3.658,7.922c-0.847,1.264-2.539.348-2.539,0.348a15.823,15.823,0,0,0-6.705-1.4v0.01a16.945,16.945,0,0,0-6.687,1.408s-1.688.918-2.532-.349c0,0-1.039-1.584.974-3.03,0,0,2.824-2.3,8.226-2.3h0c5.417,0,8.285,2.3,8.285,2.3C38.779,44.746,37.737,46.328,37.737,46.328Z"/>
</svg>
