<svg xmlns="http://www.w3.org/2000/svg" width="56" height="56" viewBox="0 0 56 56">
  <defs>
    <style>
      .cls-1 {
        fill: #fff;
        fill-rule: evenodd;
      }
    </style>
  </defs>
  <path id="cheers" class="cls-1" d="M28,3c16.371-.8,26,12.641,26,27S47.026,53,28,53,2,44.359,2,30,10,3.876,28,3ZM12,26s1.25-7.417,4-11c0,0,7.083.667,11,5,0,0,3.917,3.583-2,2l-7-2-3,7S10.917,32.25,12,26Zm36.735-8.562s-4.425-4.279-7.223-5.754c0,0-3.859,3.254-4.264,7.453,0,0,.525,5.98,2.626.58l2.738-3.352,5.142,2.062S51.543,21.374,48.735,17.438ZM15.063,32.792c6.9,5,15,4.613,30.015,1.686,0.818-.159,3.591-0.511,3.711.363s0.445,1.442-.329,1.822c-6.3,3.092-25.31,7.423-35.466.1-0.7-.5-2.1-2.158-1.958-3.028s1.206-1.109,2.028-.972Z"/>
</svg>
