<svg xmlns="http://www.w3.org/2000/svg" width="56" height="56" viewBox="0 0 56 56">
  <defs>
    <style>
      .cls-1 {
        fill: #fff;
        fill-rule: evenodd;
      }
    </style>
  </defs>
  <path id="Insult" class="cls-1" d="M33.819,52.675A11.6,11.6,0,0,0,34,50.4c0-3.25-.766-11.065-0.957-12.969a99.381,99.381,0,0,0,10.418-1.018,1.592,1.592,0,0,0,1.3-1.825,1.543,1.543,0,0,0-1.73-1.338q-4.5.686-9.035,0.932V34.013H22v0.08c-2.685-.181-5.366-0.433-8.035-0.84a1.543,1.543,0,0,0-1.73,1.338,1.591,1.591,0,0,0,1.3,1.825c3.129,0.477,6.274.785,9.424,0.961C22.782,39.138,22,46.977,22,50.2a11.8,11.8,0,0,0,.209,2.474C7.557,51.026,2,42.8,2,30.015,2,15.664,10,3.907,28,3.031c16.371-.8,26,12.633,26,26.984C54,42.789,48.45,51.016,33.819,52.675ZM11,21.021a4.977,4.977,0,0,0-3.706,8.324A19.527,19.527,0,0,1,11,29.016a19.528,19.528,0,0,1,3.706.329A4.977,4.977,0,0,0,11,21.021Zm34,0a4.977,4.977,0,0,0-3.706,8.324,21.072,21.072,0,0,1,7.413,0A4.977,4.977,0,0,0,45,21.021Zm1,6a2,2,0,1,1,2-2A2,2,0,0,1,46,27.017Zm-34,0a2,2,0,1,1,2-2A2,2,0,0,1,12,27.017Zm13,8.995h6s1,9.811,1,13.592c0,3.714-1,3.4-1,3.4,0,1.1-.9,3-2,3H27c-1.1,0-2-1.894-2-3,0,0-1,.447-1-3.2,0-3.845,1-13.792,1-13.792h0ZM28,53l1-16.99H27Z"/>
</svg>
