<svg xmlns="http://www.w3.org/2000/svg" width="1714" height="1348" viewBox="0 0 1714 1348">
  <defs>
    <style>
      .cls-1 {
        fill: #fff;
        fill-rule: evenodd;
      }
    </style>
  </defs>
  <path id="ring" class="cls-1" d="M1327.89,1038.11c-12.75-5.28-25.64-14.03-36.01-22.1a552.086,552.086,0,0,0-2.64-683.361l29.29-30.6A594.071,594.071,0,0,1,1327.89,1038.11ZM857,124A549.641,549.641,0,0,0,513.953,243.521l-30.6-29.3a594.05,594.05,0,0,1,746.974-.253l-30.6,29.3A549.64,549.64,0,0,0,857,124ZM420.623,1014.08c-9.979,7.96-22.706,16.94-35.506,22.75a594.1,594.1,0,0,1,10.115-734.488l29.295,30.6A552.066,552.066,0,0,0,420.623,1014.08Zm146.394,131.68c-2.3,6.97-7.57,26.22-3.545,46.73a595.662,595.662,0,0,1-72.967-49l29.93-29.94A551.451,551.451,0,0,0,567.017,1145.76Zm624.3-30.49,29.95,29.95a594.734,594.734,0,0,1-73.02,48.55c4.31-20.04-.45-39.11-2.93-46.97A553.836,553.836,0,0,0,1191.32,1115.27ZM1521.67,40.214l-5.12,5.125c-4.19-2.05-9.72-5.682-16.16-12.126l-0.02.022c-7.5-7.5-11.19-13.754-13-18.114l4.6-4.6s16.5-18.856,32.53-2.828S1521.67,40.214,1521.67,40.214Zm-33.21,6.344s7.07,7.642,15.58,11.367l-62.48,64.87c-4.49-1.7-10.8-5.246-18.15-12.6l-0.03.025c-8.58-8.586-11.96-15.747-13.29-20.266l64.75-62.361c3.44,9.594,12.91,18.261,12.91,18.261Zm-63.77,93.754-287.68,298.71a159.85,159.85,0,0,0-18.39-22.627,217.815,217.815,0,0,0-25.45-21.213l299.52-288.471c2.08,10.955,13.19,21.013,13.19,21.013l0.71,0.707S1414.86,137.461,1424.69,140.312ZM577.131,438.991L289.321,140.154c9.837-2.852,18.117-11.886,18.117-11.886l0.707-.708s11.113-10.062,13.195-21.022L620.99,395.132a217.724,217.724,0,0,0-25.466,21.222A159.683,159.683,0,0,0,577.131,438.991ZM290.606,110.021c-7.359,7.359-13.668,10.9-18.164,12.607l-62.5-64.9c8.514-3.727,15.589-11.372,15.589-11.372l0.707-.708s9.472-8.67,12.916-18.268L303.93,89.771c-1.329,4.521-4.711,11.685-13.3,20.275ZM213.614,33.029l-0.022-.022c-6.447,6.447-11.973,10.081-16.165,12.132L192.3,40.012s-18.864-16.506-2.83-32.541,32.541,2.83,32.541,2.83l4.607,4.606C224.8,19.269,221.115,25.528,213.614,33.029ZM1639.5,1202s-1.48.46-4.33,1.24c-22.68-47.88-31.15-109.22-32.72-121.94l21.05-5.3s74-21,87,32C1710.5,1108,1731.5,1181,1639.5,1202Zm-220.05,19.5c-11.52-40.47-4.26-93.54-1.15-111.91a279.224,279.224,0,0,0,82.2-2.59l76.34-19.24c3.37,52.44,24.42,107.42,30.31,121.93C1570.85,1216.85,1505.57,1225.82,1419.45,1221.5Zm-30.57-2.04c-1.79-.15-3.58-0.3-5.38-0.46,0,0-36-4-63-29l-59-58-172-172a177.431,177.431,0,0,0,22.5-18.5,138.562,138.562,0,0,0,16.5-20.5l156,136s40.63,33.7,106.83,48.09C1382.43,1146.86,1387.06,1202.01,1388.88,1219.46ZM393.023,1190c-27,25-62.994,29-62.994,29-1.8.16-3.588,0.31-5.375,0.46,1.819-17.45,6.445-72.6-2.454-114.37C388.394,1090.7,429.02,1057,429.02,1057L585,921a138.936,138.936,0,0,0,16.5,20.5A177.566,177.566,0,0,0,624,960L452.017,1132ZM106.4,1209.69c5.889-14.51,26.94-69.49,30.311-121.93L213.041,1107a279.2,279.2,0,0,0,82.2,2.59c3.106,18.37,10.367,71.44-1.153,111.91C207.968,1225.82,142.7,1216.85,106.4,1209.69Zm-28.015-6.45c-2.852-.78-4.329-1.24-4.329-1.24-91.991-21-70.993-94-70.993-94,13-53,86.991-32,86.991-32l21.043,5.3C109.529,1094.02,101.062,1155.36,78.384,1203.24ZM1153.17,289.252a484.8,484.8,0,0,0-196.7-91.09l-44.407-15.119-10.966-22.05A512.941,512.941,0,0,1,1170,266.021v6.4ZM756.847,197.685a484.714,484.714,0,0,0-198.486,91.157L541,271.481v-5.452A512.921,512.921,0,0,1,815.109,160.565l-10.25,20.611Zm-22.2,34.884,33.414,21.369a428.083,428.083,0,0,0-168.68,75.927l-20.416-20.417A457.132,457.132,0,0,1,734.649,232.569Zm39.735,49.376-12.21,32.294A371.01,371.01,0,0,0,644.686,368h-7.167L620,350.478A400.1,400.1,0,0,1,774.384,281.945Zm318,68.1L1074.42,368h-7.11a371,371,0,0,0-113.927-52.8l-12.371-32.725A400.166,400.166,0,0,1,1092.38,350.04Zm-145.167-95.4,33.019-21.262a457.141,457.141,0,0,1,152.758,76.052l-20.41,20.417A428.2,428.2,0,0,0,947.213,254.636Zm-78.7-96.32c7.258,5.34,16.154,21.877,24.084,37.411q1.595,1.4,3.169,2.833c20.175,4.644,40.621,12.484,47.935,18.5a7.863,7.863,0,0,1,2.163,4.571c0.056,0.381.093,0.76,0.115,1.135,0.011,0.188.019,0.374,0.023,0.56s0,0.37,0,.554a19.349,19.349,0,0,1-.144,2.128A18.947,18.947,0,0,1,944.578,231h0c-4.628,7.54-18.379,16.209-32.332,27.294q-0.109,1.355-.229,2.7c4.054,16.584,8.366,34.951,8.813,44.685,1.2,8.356-3.985,9.38-3.979,9.434a15,15,0,0,1-4.444.861c-0.341.016-.674,0.022-1,0.019s-0.636-.014-0.938-0.032c-0.605-.035-1.167-0.1-1.679-0.169a16.636,16.636,0,0,1-3.313-.782c-23.03-7.286-29.956-11.478-47.377-19.388l-0.31.137c0-.107,0-0.215,0-0.324l-0.31-.14c-17.871,8.025-28.551,12.643-47.693,19.333A17.865,17.865,0,0,1,798.4,314.6c0-.049-5.137-1.187-3.833-9.6,0.575-9.8,4.987-28.188,9.153-44.716q-0.11-1.343-.21-2.695C789.644,246.443,776,237.757,771.4,230.233a18.983,18.983,0,0,1-1.268-4.982,19.536,19.536,0,0,1-.141-2.124,14.3,14.3,0,0,1,.146-2.243,7.8,7.8,0,0,1,2.189-4.554c7.376-5.966,27.863-13.673,48.056-18.172q1.581-1.413,3.185-2.8c8.027-15.418,17-31.815,24.291-37.083C847.85,158.177,856.842,147.316,868.508,158.316ZM857,1345.94c-64.2,0-116.25-52.89-116.25-118.13S792.8,1109.69,857,1109.69s116.25,52.88,116.25,118.12S921.2,1345.94,857,1345.94ZM830.951,1160.2a6.9,6.9,0,0,0-2.571-3.04,13.835,13.835,0,0,0-4.659-1.98,14.137,14.137,0,0,0-1.653-.17c-0.264-.02-0.523-0.02-0.776-0.02s-0.5.01-.745,0.02a12.636,12.636,0,0,0-2.675.46,12.007,12.007,0,0,0-3.974,2,11.286,11.286,0,0,0-2.985,3.31c-15.441,20.96-13.766,51.68-13.276,51.99a22.063,22.063,0,0,0,.237,2.26,17.746,17.746,0,0,0,.433,2,14.524,14.524,0,0,0,1.36,3.32,13.123,13.123,0,0,0,3.9,4.29,12.745,12.745,0,0,0,5.364,2.25,18.715,18.715,0,0,0,2.194.08,14.7,14.7,0,0,0,1.866-.18,9.655,9.655,0,0,0,2.881-.96,7.543,7.543,0,0,0,3.189-3.29,10.228,10.228,0,0,0,1.036-5c-0.237-26.26,11.2-52.17,10.637-52.44a8.62,8.62,0,0,0,.441-1.42,6.592,6.592,0,0,0,.112-0.66,6.087,6.087,0,0,0,.047-0.62A5.533,5.533,0,0,0,830.951,1160.2Zm70.46,0.58a11.249,11.249,0,0,0-2.981-3.31,12,12,0,0,0-3.971-2,12.618,12.618,0,0,0-2.672-.46c-0.243-.01-0.491-0.02-0.744-0.02s-0.512,0-.776.02a14.121,14.121,0,0,0-1.652.17,13.823,13.823,0,0,0-4.654,1.98,6.92,6.92,0,0,0-2.568,3.05,5.5,5.5,0,0,0-.384,2.19q0.007,0.3.046,0.63,0.039,0.315.112,0.66a8.718,8.718,0,0,0,.441,1.41c-0.558.28,10.864,26.2,10.627,52.47a10.271,10.271,0,0,0,1.036,5,7.538,7.538,0,0,0,3.185,3.29,9.641,9.641,0,0,0,2.879.96,14.665,14.665,0,0,0,1.864.18,18.555,18.555,0,0,0,2.192-.07,13.012,13.012,0,0,0,5.36-2.26,13.228,13.228,0,0,0,3.9-4.29,14.523,14.523,0,0,0,1.358-3.32,18.009,18.009,0,0,0,.433-2,22,22,0,0,0,.236-2.27C915.165,1212.49,916.839,1181.75,901.411,1160.78ZM934.875,1250l-4.992-4c-20.607-3.33-64.911-4-64.911-4H845.035s-44.269.67-64.86,4l-4.988,4s-6.981,78,79.813,78h0C941.862,1328,934.875,1250,934.875,1250ZM855,1314s-40,1-54-22c0,0-3-5,4-8,0,0,25-2,50-2,25.172,0,50.343,2,50.343,2,7.048,3,4.028,8,4.028,8C895.275,1315,855,1314,855,1314Zm-163.821-37-0.25-.09c13.543,0,17.291-6.53,18.135-11.72a125.162,125.162,0,0,1-4.021-31.54,126.947,126.947,0,0,1,51.95-102.41c4.244-3.1,12.634-5.24-1.034-18.97A92.323,92.323,0,0,0,692.49,1087c-51.633,0-93.49,42.54-93.49,95.02C599,1234.04,640.153,1276.28,691.179,1277Zm331.9,0,0.25-.09c-13.5,0-17.24-6.53-18.08-11.72a125.57,125.57,0,0,0,4.01-31.54,127.061,127.061,0,0,0-51.8-102.41c-4.232-3.1-12.6-5.24,1.031-18.97A91.921,91.921,0,0,1,1021.78,1087c51.48,0,93.22,42.54,93.22,95.02C1115,1234.04,1073.96,1276.28,1023.08,1277Zm112.88-759.633c-6.78,4.013-10.31,4.475-19.08,7.379-5.61,1.86-9.44-.129-11.93-2.45C1053.49,439.457,961.7,384.29,857,384.29c-105.335,0-197.62,55.836-248.9,139.519a11.2,11.2,0,0,1-9.984.937c-8.768-2.9-12.3-3.366-19.078-7.379-5.989-3.547-6.2-5.3-2.617-15.124C634.624,408.462,738.51,346,857,346c120.055,0,225.13,64.117,282.87,159.969C1141.98,512.6,1141.1,514.323,1135.96,517.367ZM857,967.71c116.459,0,216.96-68.255,263.73-166.937l45.65-9.782C1119.7,916.543,998.807,1006,857,1006A329.007,329.007,0,0,1,619.835,905.433l45.9-9.18A290.575,290.575,0,0,0,857,967.71Zm490.8-441.373L1348,526l-0.21.745A9.4,9.4,0,0,1,1347,530l-1.14,3.681L1301,697c-14,44-57,48-57,48l-122,25L505.219,898.022,483,903c-8,1.667-7-9-7-9l9-33c1.667-6.667,9.864-7.2,9.864-7.2L1105,734l135-30s20-4,24-24l8-28c-15.05,25.476-39,23-39,23-40.5-3.5-23-58-23-58l22-74c3-9.5,10-10,10-10l28-6c10.5-2,7,7,7,7l-21,76s-3.67,12.333,3,13c0,0,13.83,4.333,20-12,12-37,27-89,27-89,2-5.5,9-8,9-8l23-4C1355.36,506.356,1348.08,523.251,1347.8,526.337ZM1194,614s-0.5,9-13,12l-59,11-1,2s-10.5,19,13,15l46-7.5s9.67-2.5,8,6.5l-4,24s0,9.5-13,13l-61,12.5s-37.5,8.5-42-27c0,0-6-54.5,46-104,0,0,45-49,85-21,0,0,12.5,8.5,6,31.5Zm-31.74-43.82S1142.22,574.291,1131,608l30.42-4.933s5.49-.878,8.32-7.4l2.66-7.933S1179.38,567.713,1162.26,570.18ZM1020,649a7.989,7.989,0,0,0-1,8l6,12s2.67,6.333,11,5l13-2s10-2.667,9,7l-7,28s-1,7.167-8,9l-14,3s-30.333,5.333-39-14l-11.409-24.449L966,725c-2,8.333-8,8-8,8l-27.628,5.526C912.705,741.859,918,728,918,728l71-260c4.333-14,13-10,13-10a62.95,62.95,0,0,1,15.23,7c11.18,7.163,13.77,12,13.77,12,4.17,6.333,1,15,1,15L996.747,616.455,1048,567s4.67-6.667,11,1l17,20s4,3-1,8ZM849,710l50-10s9.667-3,8,6l-9,32s-0.256,6.718-9.923,8.385L843,756c-18.667,4.333-25,4-25,4-53.333-1-25-66-25-66,38.667-91.333,98-90,98-90,38,0,34,34,34,34l-2,13c-1.333,10.333-7,11-7,11l-32,7c-6,1-5-6-5-6l1-14c-16.209,6.065-27.429,17.555-35,28.869V678s-1.441,2.04-3.264,5.1c-1.824,3.135-3.372,6.186-4.679,9.031C832.773,702.1,831.455,713.164,849,710Zm66-126a112.86,112.86,0,0,0-51,1c-43.333,11.5-58,41-58,41-5,8.167-14,7-14,7-5.333.667-13-4-13-4-33.5-33-91.5-8-91.5-8-12,3-11-10-11-10,4.737-27.381-4.247-48.918-13.817-63.192a12.82,12.82,0,0,1,.85-8.7q1.956-2.76,3.991-5.458c0.191-.188.374-0.375,0.578-0.563l-0.373.286a237.131,237.131,0,0,1,282.5-75.311L950,458c8.1,3.071,10.268,8.325,10.607,12.366L928,577C924,588,915,584,915,584Zm-2.277-116.927s-91.4-33.481-191.937,48.138c0,0-41.593,26.457-14.545,53.44,0,0,25.174,16.733,47.352-15.811,0,0,52.854-78.029,159.642-63.127,0,0,16.471,2.71,17-9.724C930.231,479.989,931.532,472.61,912.723,467.073ZM730,634c30.5,0,43,27,43,27s10,17.333,4,45c-3,15.5-17,38-17,38-41.5,58.5-93,37-93,37-41.5-23.5-21-78-21-78C673.5,633.5,730,634,730,634Zm-42.745,99.3c22.268,18.646,49.551-21.868,49.551-21.868,16-26-.806-36.436-0.806-36.436-14.833-13.167-30.478,1.509-30.478,1.509C667.782,710.55,687.255,733.3,687.255,733.3ZM568,803s-13.907,10.347-39.882,17.78L528,821l-3.1.666c-5.365,1.429-11.2,2.718-17.5,3.767L472.7,832.9,434,841s-3.208,2.175-2.37,3.652c3.088,5.448,22.619,1.376,23.744,15.693-3.574,13.667-6.81,26.708-9.374,38.155,0,0-.5,13-12,16L399,922s-15,5.5-10-14c0,0,40.5-147.006,72-255,0,0,5-12.5-10-14l-21-5s-8.5-.5-7-10l6-27s0.833-13,13.5-11l41.5,8s29,3.5,17,47c0,0,53-104.5,120-91,0,0,32,7.5,29,66C650,616,638,767,568,803Zm3-180s-43,3.5-77,103c0,0-8.359,27.044-18.493,61.929,7.469-1.189,16.877-2.759,25.126-4.355,35.83-6.933,54.168-21.386,63-31.52,6.248-8.328,12.434-19.4,17.368-34.054a291.955,291.955,0,0,0,16-66S602,615,571,623ZM857,913a235.824,235.824,0,0,1-119.585-32.368l311-64.9A236.615,236.615,0,0,1,857,913Z"/>
</svg>
