<svg xmlns="http://www.w3.org/2000/svg" width="30" height="30" viewBox="0 0 30 30">
  <defs>
    <style>
      .cls-1 {
        fill: #fff;
        fill-rule: evenodd;
      }
    </style>
  </defs>
  <path id="mutechat" class="cls-1" d="M26.22,0.992l2.788,2.8L26,6.689a2.959,2.959,0,0,1,1.613,2.63v9.9a2.963,2.963,0,0,1-2.957,2.969H16.771a51.051,51.051,0,0,1-4.128,5.134c-1,1-2.772.836-2.772-.309V22.237L4.365,27.544l-2.788-2.8ZM1,19.217V9.32A2.963,2.963,0,0,1,3.957,6.351H14.747L1.035,19.567A2.933,2.933,0,0,1,1,19.217Z"/>
</svg>
