<svg xmlns="http://www.w3.org/2000/svg" width="24" height="48" viewBox="0 0 24 48">
  <defs>
    <style>
      .cls-1 {
        fill: #fff;
        fill-rule: evenodd;
      }
    </style>
  </defs>
  <path class="cls-1" d="M20.513,21.842L16.1,25.5v0.3l2.471,4.183a2.2,2.2,0,0,1,0,1.829c-1.226.407-1.471,0-1.471,0l-5.209-3.2L6.852,31.7s-0.243.4-1.456,0a2.191,2.191,0,0,1,0-1.818l2.456-4.152v-0.3l-4.37-3.636s-1.262-1.414.291-1.818H8.6l0.291-.3,2.039-5.757a1.127,1.127,0,0,1,.874-0.876V13a1.356,1.356,0,0,1,.146.017A1.339,1.339,0,0,1,12.1,13v0.033a1.136,1.136,0,0,1,.886.882l2.059,5.793,0.294,0.3h4.884C21.787,20.419,20.513,21.842,20.513,21.842Zm0.107,8.97-2.045-3.293A7.782,7.782,0,0,0,19.3,25.56l3.636-2.272C22.955,23.526,23,23.757,23,24A10.937,10.937,0,0,1,20.62,30.812ZM16.185,17.787l-1.206-4.366A11.024,11.024,0,0,1,21.169,18H16.463C16.369,17.93,16.282,17.852,16.185,17.787ZM12,35a10.925,10.925,0,0,1-3.929-.738l3.26-2.836c0.224,0.02.44,0.068,0.668,0.068,0.178,0,.346-0.04.521-0.053l3.286,2.866A10.924,10.924,0,0,1,12,35ZM2.828,18a11.024,11.024,0,0,1,6.107-4.557L7.378,18H2.828Zm1.867,7.559a7.792,7.792,0,0,0,.716,1.934L3.36,30.786A10.935,10.935,0,0,1,1,24c0-.243.044-0.474,0.06-0.713ZM7,36V48H0l1-2s2,0.25,2-5V34Zm10,0V48h7l-1-2s-2,.25-2-5V34ZM9,37h6V48H9V37ZM7,11V0H0L1,2s2-.25,2,5v7Zm10,0V0h7L23,2s-2-.25-2,5v7Zm-2-1V0H9V10l2.75-1h1Z"/>
</svg>
