<svg xmlns="http://www.w3.org/2000/svg" width="40" height="40" viewBox="0 0 40 40">
  <defs>
    <style>
      .cls-1 {
        fill: #07172a;
        opacity: 0.75;
      }

      .cls-1, .cls-2 {
        fill-rule: evenodd;
      }

      .cls-2 {
        fill: #fff;
      }
    </style>
  </defs>
  <path id="icon_tip" class="cls-1" d="M20,40C9.507,40,0,31.493,0,21S9.507,1,20,1s20,9.507,20,20S30.493,40,20,40Z"/>
  <path id="icon_tip_copy" data-name="icon_tip copy" class="cls-2" d="M20,37A17,17,0,1,1,37,20,17,17,0,0,1,20,37ZM16.179,14.63l-9.6.2,0.041,3.458,2.949-.1L9.523,27.039l4.014-.178-0.43-8.754,3.236,0.039Zm5.45,0.059-4.137.158,0.143,12.271,4.075-.257Zm9.872,0-7.7.2,0.061,12.252,4.034,0.02-0.143-4.031L32.3,22.85l1.106-1.778-0.2-4.743Zm-3.85,3.438,0.184-.217,1.945,0.04,0.061,2.312-2.171.138Z"/>
</svg>
