<svg id="rank-normal-shadow" xmlns="http://www.w3.org/2000/svg" width="30" height="54" viewBox="0 0 30 54">
  <defs>
    <style>
      .cls-1 {
        fill: #011417;
        opacity: 0.75;
      }

      .cls-1, .cls-2 {
        fill-rule: evenodd;
      }

      .cls-2 {
        fill: #fff;
      }
    </style>
  </defs>
  <g id="_13" data-name="13">
    <path id="shadow" class="cls-1" d="M15,54h7l1-1V52l-1-1c-2.969-1.875-3-4-3-4V44s11.083-1.167,10-15c0,0,.979-9.25-10-13V11a20.818,20.818,0,0,1,1.038-4.075A3.188,3.188,0,0,1,22,5V3L21,2H15m0,52H8.047L7.053,53V52l0.993-1c2.949-1.875,2.98-4,2.98-4V44S0.017,42.833,1.093,29c0,0-.973-9.25,9.933-13V11A20.927,20.927,0,0,0,10,6.925,3.173,3.173,0,0,0,8.047,5V3L9.04,2H15"/>
    <path id="_13-2" data-name="13" class="cls-2" d="M15,31l-4-4,4-11,4,11Zm2,1,3-4,7,4-7,2Zm-4,0-3-4L3,32l7,2Zm2,0-3,2s2.5,4,6,0Zm11.939-1.8-3-2.254a9,9,0,0,0-5.055-7.062L17.92,17.374A12.011,12.011,0,0,1,27,29C27,29.407,26.979,29.808,26.939,30.2ZM6.066,27.95L3.061,30.2C3.021,29.808,3,29.407,3,29a12.01,12.01,0,0,1,9.08-11.626l-0.958,3.514A8.995,8.995,0,0,0,6.066,27.95ZM15,38a8.97,8.97,0,0,0,6.4-2.681l4.265-.853a11.979,11.979,0,0,1-21.339,0L8.6,35.319A8.969,8.969,0,0,0,15,38Zm2-23V9c0-5,3-6,3-6H10s3,1,3,6v6l2-1Zm0,28v2c0,5,3,6,3,6H10s3-1,3-6V43h4Z"/>
  </g>
</svg>
