<svg id="rank-normal-shadow" xmlns="http://www.w3.org/2000/svg" width="30" height="54" viewBox="0 0 30 54">
  <defs>
    <style>
      .cls-1 {
        fill: #011417;
        opacity: 0.75;
      }

      .cls-1, .cls-2 {
        fill-rule: evenodd;
      }

      .cls-2 {
        fill: #fff;
      }
    </style>
  </defs>
  <g id="_16" data-name="16">
    <path id="shadow" class="cls-1" d="M15,2H28l1,1V5a3.188,3.188,0,0,0-1.962,1.925A20.818,20.818,0,0,0,26,11v9h1a1.76,1.76,0,0,1,2,2V33a24.137,24.137,0,0,1-1.262,3.525A9.042,9.042,0,0,1,26,39v8s0.031,2.125,3,4l1,1v1l-1,1H15M15,2H2L1,3V5A3.188,3.188,0,0,1,2.963,6.925,20.815,20.815,0,0,1,4,11v9H3a1.76,1.76,0,0,0-2,2V33a24.136,24.136,0,0,0,1.263,3.525A9.041,9.041,0,0,0,4,39v8s-0.031,2.125-3,4L0,52v1l1,1H15"/>
    <path id="_16-2" data-name="16" class="cls-2" d="M24,9v9l-1.8-2L20,18V3h7S24,4,24,9ZM12,17V3h6V17l-3-3ZM6,18V9C6,4,3,3,3,3h7V18L7.8,16Zm1.421,1.393,2.526,1.7L8.368,24.143,6.158,21.881Zm12.631,1.7,2.526-1.7,1.263,2.488-2.211,2.262Zm-12,6.089L15,17l6.947,10.179V25.822L27,21.072l-0.631,8.822S24.79,31.929,15,31.929,3.632,29.893,3.632,29.893L3,21.072l5.053,4.75v1.357Zm6.947,1c0.7,0,2.263-2.193,2.263-3.036S15.7,22.107,15,22.107s-2.263,2.193-2.263,3.036S14.3,28.179,15,28.179ZM6,45V37l4,1V51H3S6,50,6,45Zm12-7V51H12V38h6Zm-3-2s-5.955.194-10.105-1.357l-0.632-.678L3.632,32.607V31.929L3.9,31.637c2,2.323,11.1,2.328,11.1,2.328s9.094,0,11.1-2.328l0.272,0.292v0.678l-0.632,1.357-0.632.678C20.955,36.194,15,36,15,36Zm9,9c0,5,3,6,3,6H20V38l4-1v8Z"/>
  </g>
</svg>
