<svg id="rank-normal-shadow" xmlns="http://www.w3.org/2000/svg" width="30" height="54" viewBox="0 0 30 54">
  <defs>
    <style>
      .cls-1 {
        fill: #011417;
        opacity: 0.75;
      }

      .cls-1, .cls-2 {
        fill-rule: evenodd;
      }

      .cls-2 {
        fill: #fff;
      }
    </style>
  </defs>
  <g id="_11" data-name="11">
    <path id="shadow" class="cls-1" d="M15,2H6L5,3V5A3.188,3.188,0,0,1,6.963,6.925,20.815,20.815,0,0,1,8,11v9L7,21,3,22s-2,1.125-2,3a53.415,53.415,0,0,0,5,7A21.354,21.354,0,0,0,5,42a6.627,6.627,0,0,0,3-1v6s-0.031,2.125-3,4L4,52v1l1,1H15M15,2h9l1,1V5a3.188,3.188,0,0,0-1.962,1.925A20.818,20.818,0,0,0,22,11v9l1,1,4,1s2,1.125,2,3a53.411,53.411,0,0,1-5,7,21.353,21.353,0,0,1,1,10,4.88,4.88,0,0,1-3-1v6s0.031,2.125,3,4l1,1v1l-1,1H15"/>
    <path id="_11-2" data-name="11" class="cls-2" d="M26.411,25.611L21.115,30v0.366l1.765,6.22a2.639,2.639,0,0,1,0,2.2c-1.471.488-1.765,0-1.765,0l-5.222-3.207A1,1,0,0,0,15,35c-0.011,0-.019.006-0.03,0.006l-0.1-.062-0.2.123a0.993,0.993,0,0,0-.378.231L8.818,38.636s-0.291.485-1.748,0a2.63,2.63,0,0,1,0-2.182l1.748-6.182V29.909L3.574,25.546s-1.515-1.7.35-2.182l6.991-1.2,0.35-.364,2.447-5.709A1.353,1.353,0,0,1,14.76,15.04V15a1.639,1.639,0,0,1,.175.02A1.63,1.63,0,0,1,15.11,15v0.04A1.364,1.364,0,0,1,16.173,16.1l2.471,5.752L19,22.216l7.061,1.2C27.941,23.9,26.411,25.611,26.411,25.611Zm-5.884-.4-3.53-.6-0.177-.183-1.236-2.876a0.682,0.682,0,0,0-.531-0.529V21a0.8,0.8,0,0,0-.087.01A0.806,0.806,0,0,0,14.878,21v0.02a0.677,0.677,0,0,0-.524.526L13.13,24.4l-0.175.182-3.5.6c-0.932.242-.175,1.091-0.175,1.091l2.622,2.182v0.182l-0.874,3.091a1.315,1.315,0,0,0,0,1.091c0.728,0.242.874,0,.874,0l2.734-1.669a0.5,0.5,0,0,1,.189-0.115l0.1-.062L14.981,31c0.005,0,.01,0,0.015,0a0.5,0.5,0,0,1,.449.288l2.611,1.6s0.147,0.244.883,0a1.319,1.319,0,0,0,0-1.1l-0.883-3.11V28.5l2.648-2.2S21.468,25.452,20.527,25.208Zm-3.639,1.561-0.88.732v0.061L16.3,28.6a0.44,0.44,0,0,1,0,.366c-0.244.081-.293,0-0.293,0L15.14,28.43a0.165,0.165,0,0,0-.149-0.1h0l-0.017-.01-0.034.02a0.164,0.164,0,0,0-.063.038l-0.909.556s-0.048.081-.291,0a0.44,0.44,0,0,1,0-.364l0.291-1.03V27.485l-0.872-.727s-0.252-.283.058-0.364l1.162-.2,0.058-.061,0.407-.952a0.225,0.225,0,0,1,.174-0.175V25a0.256,0.256,0,0,1,.029,0,0.261,0.261,0,0,1,.029,0v0.007a0.227,0.227,0,0,1,.177.176L15.6,26.142,15.656,26.2l1.174,0.2C17.142,26.484,16.888,26.769,16.888,26.769ZM7,51s3-1,3-6V41l4-3V51H7Zm16,0s-3-1-3-6V41l-4-3V51h7ZM7,3s3,1,3,6v9l4-6V3H7ZM23,3s-3,1-3,6v9l-4-6V3h7Z"/>
  </g>
</svg>
