<svg id="rank-normal-shadow" xmlns="http://www.w3.org/2000/svg" width="30" height="54" viewBox="0 0 30 54">
  <defs>
    <style>
      .cls-1 {
        fill: #011417;
        opacity: 0.75;
      }

      .cls-1, .cls-2 {
        fill-rule: evenodd;
      }

      .cls-2 {
        fill: #fff;
      }
    </style>
  </defs>
  <g id="gm">
    <path id="shadow" class="cls-1" d="M25,27c1.657,0,4,1.343,4,3V50a3,3,0,0,1-3,3H4a3,3,0,0,1-3-3V30c0-1.657,2.343-3,4-3l0.382-6.711a0.794,0.794,0,0,0-.131-0.665L0.658,14.7A2.594,2.594,0,0,1,0,12.967a2.341,2.341,0,0,1,.46-1.4,2.352,2.352,0,0,1,1.513-.8L8.079,8.447a1.068,1.068,0,0,0,.789-0.466L12.829,2.6A2.565,2.565,0,0,1,15,1a2.565,2.565,0,0,1,2.171,1.6l3.961,5.385a1.068,1.068,0,0,0,.79.466l6.105,2.325a2.352,2.352,0,0,1,1.513.8,2.341,2.341,0,0,1,.46,1.4,2.594,2.594,0,0,1-.658,1.729L24.75,19.624a0.793,0.793,0,0,0-.131.665Z"/>
    <path id="gm-2" data-name="gm" class="cls-2" d="M25.5,32H4.5a1.5,1.5,0,0,1,0-3h21A1.5,1.5,0,0,1,25.5,32Zm0.974-17.344L22,17.771a0.625,0.625,0,0,0-.105.528l0.684,4.326a4.718,4.718,0,0,1,.211,1.846A1.756,1.756,0,0,1,21.105,26,2.84,2.84,0,0,1,20,25.736l-4.526-2.479A1.6,1.6,0,0,0,15,23.1a1.6,1.6,0,0,0-.474.158L10,25.736A2.84,2.84,0,0,1,8.895,26a1.756,1.756,0,0,1-1.684-1.53,4.718,4.718,0,0,1,.211-1.846L8.105,18.3A0.625,0.625,0,0,0,8,17.771L3.526,14.656A2.049,2.049,0,0,1,3,13.284a1.845,1.845,0,0,1,.368-1.108,1.884,1.884,0,0,1,1.211-.633L10.263,9.7a0.857,0.857,0,0,0,.632-0.369l2.368-5.064A2.047,2.047,0,0,1,15,3a2.047,2.047,0,0,1,1.737,1.266L19.105,9.33a0.857,0.857,0,0,0,.632.369l5.684,1.844a1.884,1.884,0,0,1,1.211.633A1.845,1.845,0,0,1,27,13.284,2.049,2.049,0,0,1,26.474,14.656ZM14,14a2,2,0,0,0-4,0l2,3-2,1v1a2,2,0,0,0,4,0V14Zm6,0a2,2,0,1,0-4,0l2,3-2,1v1a2,2,0,0,0,4,0V14ZM9,41V39h5v6l-1,1H5L4,45V35l1-1h9v3H7v6h4V41H9Zm7,5V34h3l2,3,2-3h3V46H23V41l-2,2-2-2v5H16ZM4.5,48h21a1.5,1.5,0,0,1,0,3H4.5A1.5,1.5,0,0,1,4.5,48Z"/>
  </g>
</svg>
