<svg id="rank-normal-shadow" xmlns="http://www.w3.org/2000/svg" width="30" height="54" viewBox="0 0 30 54">
  <defs>
    <style>
      .cls-1 {
        fill: #011417;
        opacity: 0.75;
      }

      .cls-1, .cls-2 {
        fill-rule: evenodd;
      }

      .cls-2 {
        fill: #fff;
      }
    </style>
  </defs>
  <g id="_12" data-name="12">
    <path id="shadow" class="cls-1" d="M15,54H29l1-1V52l-1-1c-2.969-1.875-3-4-3-4V38a12.239,12.239,0,0,0,3-8V26s-0.417-4.417-3-7V11a20.818,20.818,0,0,1,1.038-4.075A3.188,3.188,0,0,1,29,5V3L28,2H15m0,52H1L0,53V52l1-1c2.969-1.875,3-4,3-4V38a12.239,12.239,0,0,1-3-8V26s0.417-4.417,3-7V11A20.815,20.815,0,0,0,2.963,6.925,3.188,3.188,0,0,0,1,5V3L2,2H15"/>
    <path id="_12-2" data-name="12" class="cls-2" d="M4.831,20.694a11.963,11.963,0,0,1,7.234-5.3L9,20ZM25.2,20.7L21,20l-3.1-4.645A12.012,12.012,0,0,1,25.2,20.7ZM3.924,22.364l6.991-1.2,0.35-.364,2.447-5.709A1.353,1.353,0,0,1,14.76,14.04V14a1.613,1.613,0,0,1,.175.02A1.6,1.6,0,0,1,15.11,14v0.04A1.364,1.364,0,0,1,16.173,15.1l2.471,5.752L19,21.216l7.061,1.2c1.883,0.488.353,2.2,0.353,2.2L21.115,29v0.366l1.765,6.22a2.639,2.639,0,0,1,0,2.2c-1.471.488-1.765,0-1.765,0l-5.222-3.207A1,1,0,0,0,15,34c-0.011,0-.019.006-0.03,0.006l-0.1-.062-0.2.123a0.992,0.992,0,0,0-.378.231L8.818,37.636s-0.291.485-1.748,0a2.63,2.63,0,0,1,0-2.182l1.748-6.182V28.909L3.574,24.546S2.06,22.849,3.924,22.364Zm5.361,2.909,2.622,2.182v0.182l-0.874,3.091a1.315,1.315,0,0,0,0,1.091c0.728,0.242.874,0,.874,0l2.734-1.669a0.5,0.5,0,0,1,.189-0.115l0.1-.062L14.981,30c0.005,0,.01,0,0.015,0a0.5,0.5,0,0,1,.449.288l2.611,1.6s0.147,0.244.883,0a1.319,1.319,0,0,0,0-1.1l-0.883-3.11V27.5l2.648-2.2s0.765-.854-0.177-1.1l-3.53-.6-0.177-.183-1.236-2.876a0.682,0.682,0,0,0-.531-0.529V20a0.8,0.8,0,0,0-.087.01A0.806,0.806,0,0,0,14.878,20v0.02a0.677,0.677,0,0,0-.524.526L13.13,23.4l-0.175.182-3.5.6C8.528,24.424,9.285,25.273,9.285,25.273Zm3.865,0.121,1.162-.2,0.058-.061,0.407-.952a0.225,0.225,0,0,1,.174-0.175V24a0.256,0.256,0,0,1,.029,0,0.261,0.261,0,0,1,.029,0v0.007a0.227,0.227,0,0,1,.177.176L15.6,25.142,15.656,25.2l1.174,0.2c0.313,0.081.059,0.366,0.059,0.366l-0.88.732v0.061L16.3,27.6a0.44,0.44,0,0,1,0,.366c-0.244.081-.293,0-0.293,0L15.14,27.43a0.165,0.165,0,0,0-.149-0.1h0l-0.017-.01-0.034.02a0.166,0.166,0,0,0-.063.038l-0.909.556s-0.048.081-.291,0a0.44,0.44,0,0,1,0-.364l0.291-1.03V26.485l-0.872-.727S12.84,25.475,13.15,25.394ZM3,27c0-.321.023-0.637,0.048-0.952L7,30,5.539,34.37A11.935,11.935,0,0,1,3,27ZM18.9,38.343a11.929,11.929,0,0,1-7.81,0L15,36Zm5.552-3.973L23,30l3.952-3.952C26.972,26.363,27,26.679,27,27A11.935,11.935,0,0,1,24.452,34.37ZM24,9v6.633A13,13,0,0,0,20,13V3h7S24,4,24,9Zm-9,3a13,13,0,0,0-3,.362V3h6v9.362A13,13,0,0,0,15,12ZM6,15.633V9C6,4,3,3,3,3h7V13A13,13,0,0,0,6,15.633ZM24,9v6.633A13,13,0,0,0,20,13V3h7S24,4,24,9Zm-9,3a13,13,0,0,0-3,.362V3h6v9.362A13,13,0,0,0,15,12ZM6,15.633V9C6,4,3,3,3,3h7V13A13,13,0,0,0,6,15.633ZM24,44.806V38.992c-1.152,1.143-2.5,1.073-4,1.718V51h7S24,49.968,24,44.806Zm-9-3.064a12.606,12.606,0,0,1-3-.373V51h6V41.368A12.606,12.606,0,0,1,15,41.742Zm-9-2.75v5.814C6,49.968,3,51,3,51h7V40.71C8.5,40.065,7.152,40.135,6,38.992Z"/>
  </g>
</svg>
