<svg xmlns="http://www.w3.org/2000/svg" width="24" height="24" viewBox="0 0 24 24">
  <defs>
    <style>
      .cls-1 {
        fill: #2d899d;
        fill-rule: evenodd;
      }
    </style>
  </defs>
  <path id="Shape_324_copy_3" data-name="Shape 324 copy 3" class="cls-1" d="M18.481,23H5.519A2.4,2.4,0,0,1,3,20.734V12.371A2.4,2.4,0,0,1,5.519,10.1H18.481A2.4,2.4,0,0,1,21,12.371v8.363A2.4,2.4,0,0,1,18.481,23Zm-6.458-9.97a2.357,2.357,0,0,0-2.473,2.221,2.2,2.2,0,0,0,1.268,1.94v2.474a1.244,1.244,0,0,0,2.473,0V17.158a2.186,2.186,0,0,0,1.2-1.907A2.357,2.357,0,0,0,12.023,13.03Zm2.618-6.3h0c0-1.772-.6-2.213-2.572-2.213S9.5,4.955,9.5,6.726h0V8.374H5.7V6.726h0V6.685h0C5.727,3.546,8.573,1,12.068,1s6.341,2.547,6.366,5.685h0V8.374H14.641V6.726Z"/>
</svg>
