<svg id="Gameplay_Callouts" data-name="Gameplay Callouts" xmlns="http://www.w3.org/2000/svg" viewBox="0 0 64 64"><defs><style>.cls-1{fill:#fff;}</style></defs><title>Artboard 1</title><g id="stats-reg"><g id="stat-penalty-color"><path id="foul3" class="cls-1" d="M25,52.26l-4.5-7.49-18-6L7,46.27Z"/><path id="foul2" class="cls-1" d="M23.54,43.27,46,20.8s11.83-9.74,13.51,7.49c0,0-.43,16.48-12,16.48,0,0-5.48.38-7.5-3l-12,9ZM51.29,24.13c2.9-1.26,5.24,1.27,5.24,5.64S54.19,38.72,51.29,40,46,38.71,46,34.33,48.4,25.39,51.29,24.13Z"/><path id="foul1" class="cls-1" d="M43,19.3a10.57,10.57,0,0,1,7.5-3L37,11.81a12.45,12.45,0,0,0-13.51,3L4,35.78l16.51,6ZM19,23.8l10.72,4.49L34,23.8,23.33,19.3Z"/></g></g></svg>