<svg xmlns="http://www.w3.org/2000/svg" width="212" height="8" viewBox="0 0 212 8">
  <defs>
    <style>
      .cls-1 {
        fill: #f5465f;
        fill-rule: evenodd;
      }
    </style>
  </defs>
  <path id="menu_highlight" class="cls-1" d="M211,3a1.731,1.731,0,0,1-2,2,2.906,2.906,0,0,1-3-2c0-1.833,3-2,3-2C211.5,1,211,3,211,3ZM199,5H188a3.131,3.131,0,0,1-3-2c0-1.833,3-2,3-2h11c4.667,0,4,2,4,2C203,5.167,199,5,199,5ZM177,5L6,7S1,6.667,1,4c0,0,.5-2,4-2L177,1s4-.333,4,2C181,3,181.333,5,177,5Z"/>
</svg>
