<?xml version="1.0" encoding="utf-8"?>
<!-- Generator: Adobe Illustrator 21.0.0, SVG Export Plug-In . SVG Version: 6.00 Build 0)  -->
<svg version="1.1" id="Layer_1" xmlns="http://www.w3.org/2000/svg" xmlns:xlink="http://www.w3.org/1999/xlink" x="0px" y="0px"
	 viewBox="0 0 32 19.8" style="enable-background:new 0 0 32 19.8;" xml:space="preserve">
<style type="text/css">
	.st0{fill:#FFFFFF;}
</style>
<path id="overlay-invite" class="st0" d="M29.2,11.9h-4.6v4.6c0,1.1-0.9,2-2,2c-1.1,0-2-0.9-2-2v-4.6H16c-1.1,0-2-0.9-2-2s0.9-2,2-2
	h4.6V3.3c0-1.1,0.9-2,2-2c1.1,0,2,0.9,2,2v4.6h4.6c1.1,0,2,0.9,2,2S30.3,11.9,29.2,11.9z M9.5,8.4c-2.4,0-4.3-0.8-4.3-3.5
	C5,2.3,6.9,0.2,9.5,0c2.5,0.2,4.4,2.3,4.3,4.8C13.7,7.5,11.8,8.4,9.5,8.4z M6,9.2c1,0.6,2.2,0.9,3.4,0.9l1.7-0.2
	c0.1,0,0.2,0,0.3-0.1v2c0,1.5,1.2,2.6,2.6,2.6H18c0,0.8,0.1,5.3-2.6,5.3h-12c-2.9,0-2.6-5.3-2.6-5.3C2.1,5.9,6,9.2,6,9.2z"/>
</svg>
