<?xml version="1.0" encoding="utf-8"?>
<!-- Generator: Adobe Illustrator 21.0.0, SVG Export Plug-In . SVG Version: 6.00 Build 0)  -->
<svg version="1.1" id="Layer_1" xmlns="http://www.w3.org/2000/svg" xmlns:xlink="http://www.w3.org/1999/xlink" x="0px" y="0px"
	 viewBox="0 0 24 15.1" style="enable-background:new 0 0 24 15.1;" xml:space="preserve">
<style type="text/css">
	.st0{fill:#FFFFFF;}
</style>
<path id="overlay-inventory" class="st0" d="M10,15.1l-1-3v-1H2c-1.1,0-2-0.8-2-1.9c0,0,0-0.1,0-0.1v3c0,2.8,3,3,3,3H10z M21,15.1
	c1.5,0.1,2.9-1,3-2.6c0-0.1,0-0.3,0-0.4v-3c0,1.1-0.8,2-1.9,2c0,0-0.1,0-0.1,0h-7v1l-1,3H21z M13,9.6c0,1.4-0.4,3.5-1,3.5
	s-1-2.1-1-3.5c0-0.5,0.1-1,0.2-1.5h1.6C12.9,8.6,13,9.1,13,9.6z M21,9.1h-6v-2c-0.9-0.6-1.9-0.9-2.9-1C11,6.1,9.9,6.5,9,7.1v2H3
	c-2.3-0.2-2-4-2-4v-2l1-3h20l1,3v2C23,5.1,23.3,8.9,21,9.1z"/>
</svg>
