<svg xmlns="http://www.w3.org/2000/svg" width="360" height="282" viewBox="0 0 360 282">
  <defs>
    <style>
      .cls-1 {
        fill: #fff;
        fill-rule: evenodd;
      }
    </style>
  </defs>
  <path id="sides" class="cls-1" d="M145.363,266.647l-0.052-.019c2.833,0,3.617-1.358,3.793-2.439a25.932,25.932,0,0,1-.841-6.567A26.389,26.389,0,0,1,159.129,236.3c0.888-.645,2.643-1.092-0.216-3.949a19.362,19.362,0,0,0-13.276-5.262A19.781,19.781,0,0,0,145.363,266.647Zm69.424,0,0.052-.019c-2.825,0-3.607-1.358-3.782-2.439a26.022,26.022,0,0,0,.838-6.567A26.411,26.411,0,0,0,201.06,236.3c-0.885-.645-2.635-1.092.216-3.949a19.275,19.275,0,0,1,13.237-5.262A19.782,19.782,0,0,1,214.787,266.647Zm-108.321-78.9L235.477,161.1,261,155.892a14.572,14.572,0,0,0,11.923-9.993l9.383-34,0.239-.767a1.96,1.96,0,0,0,.165-0.677l0.044-.155-0.042.07c0.058-.643,1.582-4.16-2.05-3.4l-4.811.832a3.39,3.39,0,0,0-1.882,1.666s-3.138,10.826-5.648,18.529c-1.29,3.4-4.183,2.5-4.183,2.5-1.394-.139-0.627-2.707-0.627-2.707l4.392-15.822s0.732-1.873-1.464-1.457l-5.857,1.249a2.637,2.637,0,0,0-2.092,2.082l-4.6,15.406s-3.661,11.346,4.811,12.075a8.963,8.963,0,0,0,8.157-4.789l-1.673,5.83a6.669,6.669,0,0,1-5.02,5L231.921,153.6,104.3,178.542a2.326,2.326,0,0,0-2.063,1.5l-1.882,6.87s-0.21,2.221,1.464,1.874Zm4.765-16.035-16.524,3.539,2.719-9.993s4.55-.658,8.081-1.338c12.207-2.35,14.719-8.863,14.719-8.863M105.584,134.24s11.086-21.755,25.1-18.945c0,0,6.693,1.562,6.066,13.741,0,0-2.51,31.436-17.152,38.931,0,0-5.334,3.955-15.06,5,0,0-2.3.417-1.464-2.5a21.945,21.945,0,0,1,2.51-5.413,5.978,5.978,0,0,1,2.928-1.249l3.974-1.457s6.38-1.874,9.831-12.075a60.568,60.568,0,0,0,3.347-13.741s1.046-7.7-5.438-6.037c0,0-9,.729-16.106,21.443,0,0-7.112,22.9-10.04,35.913,0,0-.1,2.706-2.51,3.331l-7.321,1.561s-3.138,1.145-2.092-2.914c0,0,8.472-30.6,15.06-53.088,0,0,1.046-2.6-2.092-2.915l-4.392-1.041a1.624,1.624,0,0,1-1.464-2.082l1.255-5.621a2.379,2.379,0,0,1,2.824-2.29l8.681,1.665S108.094,125.184,105.584,134.24ZM100.564,174l-8.994,1.874s-0.671.453-.5,0.76c0.72,1.264,5.713.064,4.888,4.445Zm152.274-52.047-2.3,6.662s-0.1,1.874-2.719,2.5l-12.341,2.29-0.209.416s-2.2,3.956,2.719,3.123l9.622-1.562s2.022-.52,1.673,1.354l-0.837,5s0,1.978-2.719,2.707l-12.759,2.6s-7.844,1.77-8.785-5.621c0,0-1.255-11.346,9.622-21.652,0,0,9.412-10.2,17.779-4.372C251.583,115.4,254.2,117.169,252.838,121.957ZM243.9,119.5s-4.19.856-6.537,7.874l6.363-1.027a2.511,2.511,0,0,0,1.739-1.54l0.557-1.652S247.479,118.983,243.9,119.5Zm-29.755,16.41a1.655,1.655,0,0,0-.209,1.665l1.255,2.5a2.029,2.029,0,0,0,2.3,1.041l2.719-.417s2.092-.555,1.882,1.457l-1.464,5.83a2.359,2.359,0,0,1-1.673,1.873l-2.929.625s-6.344,1.11-8.157-2.915l-2.387-5.09-2.633,9.254a1.794,1.794,0,0,1-1.674,1.666l-5.778,1.15c-3.7.694-2.588-2.191-2.588-2.191l14.851-54.129c0.906-2.915,2.719-2.082,2.719-2.082a13.179,13.179,0,0,1,3.185,1.456,8.619,8.619,0,0,1,2.881,2.5,3.909,3.909,0,0,1,.209,3.123l-7.374,25.91L220,118.834s0.976-1.388,2.3.209l3.555,4.163s0.837,0.625-.209,1.666Zm-20.289.416c-0.279,2.152-1.465,2.29-1.465,2.29L185.7,140.07c-1.255.208-1.046-1.25-1.046-1.25l0.209-2.914a15.331,15.331,0,0,0-7.321,6.025v0.012s-0.162.233-.391,0.592a21.9,21.9,0,0,0-1.327,2.483c-0.849,2.039-1.036,4.232,2.554,3.587l10.46-2.082s2.021-.624,1.673,1.25l-1.883,6.662s-0.053,1.4-2.075,1.745l-9.429,2a23.057,23.057,0,0,1-5.229.833c-11.156-.208-5.229-13.741-5.229-13.741,8.088-19.014,20.5-18.737,20.5-18.737,7.949,0,7.112,7.079,7.112,7.079Zm-34.095,19.362c-8.68,12.179-19.452,7.7-19.452,7.7-8.681-4.893-4.393-16.239-4.393-16.239,5.752-14.469,17.57-14.365,17.57-14.365a10.3,10.3,0,0,1,8.994,5.621s2.092,3.609.837,9.368C162.687,151,159.758,155.684,159.758,155.684Zm-5.02-14.365c-3.1-2.741-6.375.314-6.375,0.314-7.894,7.087-3.821,11.824-3.821,11.824,4.658,3.882,10.365-4.553,10.365-4.553C158.253,143.491,154.738,141.319,154.738,141.319Zm37.441-18.945a23.7,23.7,0,0,0-10.667.208c-9.064,2.394-12.132,8.536-12.132,8.536a3.13,3.13,0,0,1-2.928,1.457,5.538,5.538,0,0,1-2.72-.833c-7.007-6.87-19.138-1.665-19.138-1.665-2.51.624-2.3-2.082-2.3-2.082a17.631,17.631,0,0,0-2.875-13.111,2.641,2.641,0,0,1,.1-1.707c0.325-.461.646-0.926,0.986-1.375,0.01-.009.017-0.018,0.027-0.027l-0.015.012a49.637,49.637,0,0,1,59.611-15.35,2.809,2.809,0,0,1,1.586,2.281l-6.82,22.2A2,2,0,0,1,192.179,122.374ZM191.7,98.031s-19.119-6.97-40.147,10.022c0,0-8.7,5.507-3.042,11.125,0,0,5.265,3.484,9.9-3.292,0,0,11.055-16.244,33.392-13.142,0,0,3.445.564,3.555-2.024C195.365,100.72,195.637,99.184,191.7,98.031Zm-11.656,92.844a49.42,49.42,0,0,1-25-6.749l65-13.5A49.508,49.508,0,0,1,180.047,190.875Zm68.191-38.939H243.6l4.822-1.169C248.37,151.16,248.3,151.546,248.238,151.936ZM238.4,108.5a16.73,16.73,0,0,1-3.99,1.537,2.351,2.351,0,0,1-2.519-.533,61.166,61.166,0,0,0-103.9.334,2.354,2.354,0,0,1-2.094.2,16.721,16.721,0,0,1-3.991-1.537c-1.255-.739-1.3-1.109-0.541-3.165a69.211,69.211,0,0,1,117.873.874C239.648,107.523,239.45,107.88,238.4,108.5Zm-58.35,93.756a61.015,61.015,0,0,0,55.143-34.749l9.534-2.034a69.167,69.167,0,0,1-114.281,23.817l9.618-1.914A60.928,60.928,0,0,0,180.047,202.257ZM197.079,48.93c-2.67,1.629-5.294,2.989-7.872,4.7l-0.015.453c0.908,2.772,2.552,6.695,3.4,9.476,0.842,2.306-.123,2.718-0.121,2.718a2.4,2.4,0,0,1-2.417-.114c-5.722-3.337-6.72-4.432-9.783-6.2L180.222,60V59.927l-0.052-.03c-3.076,1.739-4.947,3.121-9.822,6.12a2.409,2.409,0,0,1-2.419.1s-0.961-.417-0.1-2.712c0.868-2.768,2.529-6.677,3.454-9.436l-0.012-.452c-2.57-1.725-5.185-3.1-7.846-4.74,0.006,0-2.352-1.962.371-2.742,3.424-.7,6.867-1.648,10.328-2.21l0.514-.462c1.174-2.642,2.381-5.692,3.62-8.317a1.839,1.839,0,0,1,1.612-1.31V33.685c0.1,0,.176.018,0.266,0.025,0.057,0,.11-0.011.165-0.017h0c0.055,0.006.108,0.013,0.165,0.018,0.09-.007.167-0.024,0.265-0.023v0.049a1.843,1.843,0,0,1,1.6,1.325c1.222,2.641,2.413,5.706,3.572,8.363l0.51,0.467c3.456,0.588,6.894,1.558,10.312,2.286,2.717,0.8.348,2.752,0.354,2.752h0ZM179.838,33.686h0.837l0.837,0.416h-2.3ZM242,61.011a101.584,101.584,0,0,0-49.559-20.365l-3.166-6.335A107.558,107.558,0,0,1,245.531,56.2v1.291Zm-124.414-.085L113.938,57.3V56.2a107.563,107.563,0,0,1,57.345-21.975l-3.144,6.292A101.58,101.58,0,0,0,117.582,60.925ZM154.457,49.21l6.989,4.449a89.746,89.746,0,0,0-35.284,15.806l-4.27-4.25A95.8,95.8,0,0,1,154.457,49.21Zm8.308,10.284-2.558,6.733a77.771,77.771,0,0,0-24.558,11.179H134.14l-3.666-3.649A83.883,83.883,0,0,1,162.765,59.495Zm66.516,14.171-3.758,3.74h-1.511a77.761,77.761,0,0,0-23.8-10.985l-2.587-6.813A83.879,83.879,0,0,1,229.281,73.666ZM198.9,53.813l6.917-4.434a95.8,95.8,0,0,1,31.955,15.831l-4.27,4.251A89.752,89.752,0,0,0,198.9,53.813ZM343.721,251.034s-0.316.1-.9,0.256c-4.749-9.979-6.521-22.755-6.846-25.384l4.4-1.1s15.478-4.372,18.2,6.662C358.572,231.464,362.965,246.662,343.721,251.034Zm-6.767,1.6a164.108,164.108,0,0,1-39.257,2.459c-2.412-8.437-.891-19.493-0.243-23.3a58.6,58.6,0,0,0,17.193-.531l15.971-4.006C331.323,238.171,335.724,249.616,336.954,252.63ZM291.3,254.664c-0.376-.031-0.745-0.057-1.125-0.091A25.825,25.825,0,0,1,277,248.536l-12.341-12.075-35.977-35.809a37.024,37.024,0,0,0,4.706-3.851,28.905,28.905,0,0,0,3.452-4.268l32.63,28.314a56.83,56.83,0,0,0,22.347,10.006C289.95,239.55,290.918,251.032,291.3,254.664Zm-195.961-18.2L83,248.536a25.823,25.823,0,0,1-13.176,6.037c-0.379.034-.748,0.06-1.124,0.091,0.38-3.632,1.348-15.114-.515-23.811a56.821,56.821,0,0,0,22.345-10.006l32.627-28.314a28.937,28.937,0,0,0,3.451,4.268,37.053,37.053,0,0,0,4.705,3.851ZM23.048,252.63c1.23-3.014,5.63-14.459,6.335-25.38l15.969,4.006a58.591,58.591,0,0,0,17.191.531c0.648,3.809,2.169,14.865-.242,23.3A164.072,164.072,0,0,1,23.048,252.63Zm-5.864-1.34c-0.586-.159-0.9-0.256-0.9-0.256-19.242-4.372-14.849-19.57-14.849-19.57,2.719-11.034,18.2-6.662,18.2-6.662l4.4,1.1C23.7,228.535,21.932,241.311,17.183,251.29ZM319.076,9.164L318,10.231a12.87,12.87,0,0,1-3.38-2.524l0,0A11.989,11.989,0,0,1,311.9,3.939l0.963-.958s3.451-3.926,6.8-.589S319.076,9.164,319.076,9.164Zm-6.948,1.321a11.427,11.427,0,0,0,3.261,2.365L302.32,26.356a11.029,11.029,0,0,1-3.8-2.623l0,0.005a10.208,10.208,0,0,1-2.78-4.22L309.281,6.534a11.494,11.494,0,0,0,2.7,3.8ZM298.792,30L238.616,92.191a33.279,33.279,0,0,0-3.846-4.711,45.443,45.443,0,0,0-5.324-4.416L292.1,23.006c0.435,2.281,2.757,4.376,2.757,4.376L295,27.53A9.773,9.773,0,0,0,298.792,30ZM121.508,92.184l-60.2-62.216A9.78,9.78,0,0,0,65.1,27.5l0.148-.147s2.323-2.1,2.758-4.378l62.679,60.084a45.53,45.53,0,0,0-5.327,4.418A33.255,33.255,0,0,0,121.508,92.184ZM61.576,23.7a11.032,11.032,0,0,1-3.8,2.624L44.7,12.81a11.433,11.433,0,0,0,3.262-2.367l0.148-.147a11.5,11.5,0,0,0,2.7-3.8L64.362,19.48A10.215,10.215,0,0,1,61.581,23.7ZM45.472,7.668l0,0a12.889,12.889,0,0,1-3.381,2.525L41.014,9.122s-3.946-3.436-.592-6.775,6.807,0.589,6.807.589l0.963,0.959A12.005,12.005,0,0,1,45.472,7.668ZM278.534,216.9a34.6,34.6,0,0,1-7.546-4.612,114.37,114.37,0,0,0-.551-142.224l6.135-6.377A123.193,123.193,0,0,1,278.534,216.9Zm-98.487-190.3a115.272,115.272,0,0,0-71.732,24.9L101.907,45.4a124.666,124.666,0,0,1,156.215-.052l-6.408,6.107A115.273,115.273,0,0,0,180.047,26.607ZM88.79,211.888a37.38,37.38,0,0,1-7.437,4.745A123.189,123.189,0,0,1,83.474,63.75l6.135,6.379A114.374,114.374,0,0,0,88.79,211.888Zm30.618,27.4a20.114,20.114,0,0,0-.75,9.749,124.5,124.5,0,0,1-15.265-10.184l6.275-6.247A116.039,116.039,0,0,0,119.408,239.284Zm130.555-6.319,6.27,6.241a124.507,124.507,0,0,1-15.267,10.087,19.954,19.954,0,0,0-.624-9.789A116.193,116.193,0,0,0,249.963,232.965ZM180.063,281a24.6,24.6,0,1,1,24.312-24.594A24.454,24.454,0,0,1,180.063,281ZM174.6,242.332a1.444,1.444,0,0,0-.538-0.633,2.882,2.882,0,0,0-.974-0.412,3.105,3.105,0,0,0-.346-0.036c-0.055,0-.109,0-0.162,0s-0.105,0-.156,0a2.555,2.555,0,0,0-.56.095,2.505,2.505,0,0,0-.831.416,2.346,2.346,0,0,0-.624.689c-3.23,4.363-2.88,10.76-2.777,10.824a4.734,4.734,0,0,0,.049.471,3.77,3.77,0,0,0,.091.417,3.042,3.042,0,0,0,.284.69,2.753,2.753,0,0,0,.816.893,2.71,2.71,0,0,0,1.122.47,4.082,4.082,0,0,0,.459.015,3.032,3.032,0,0,0,.391-0.038,1.97,1.97,0,0,0,.6-0.2,1.573,1.573,0,0,0,.667-0.683,2.134,2.134,0,0,0,.217-1.041c-0.05-5.468,2.342-10.862,2.225-10.918a1.865,1.865,0,0,0,.092-0.3c0.01-.047.018-0.093,0.023-0.138a1.173,1.173,0,0,0,.01-0.13A1.152,1.152,0,0,0,174.6,242.332Zm14.738,0.12a2.36,2.36,0,0,0-.624-0.689,2.51,2.51,0,0,0-.83-0.416,2.556,2.556,0,0,0-.559-0.095c-0.051,0-.1,0-0.156,0s-0.107,0-.162,0a3.105,3.105,0,0,0-.346.036,2.881,2.881,0,0,0-.973.412,1.432,1.432,0,0,0-.537.634,1.129,1.129,0,0,0-.081.457c0,0.042.005,0.086,0.01,0.13s0.013,0.091.023,0.137a1.852,1.852,0,0,0,.093.3c-0.117.056,2.272,5.452,2.223,10.922a2.117,2.117,0,0,0,.216,1.042,1.573,1.573,0,0,0,.666.684,1.942,1.942,0,0,0,.6.2,2.686,2.686,0,0,0,.39.038,3.842,3.842,0,0,0,.458-0.015,2.687,2.687,0,0,0,1.121-.47,2.74,2.74,0,0,0,.815-0.893,3,3,0,0,0,.284-0.69,3.739,3.739,0,0,0,.091-0.418,4.454,4.454,0,0,0,.049-0.471C192.214,253.217,192.564,246.817,189.337,242.452Zm7,18.575-1.045-.833a135.685,135.685,0,0,0-13.577-.833h-4.17a135.489,135.489,0,0,0-13.567.833l-1.043.833s-1.46,16.239,16.694,16.239C197.8,277.266,196.337,261.027,196.337,261.027Zm-16.708,13.324s-8.367.208-11.295-4.58c0,0-.627-1.041.837-1.666,0,0,5.229-.416,10.458-0.416,5.265,0,10.53.416,10.53,0.416,1.475,0.625.843,1.666,0.843,1.666C188.053,274.559,179.629,274.351,179.629,274.351Z"/>
</svg>
