<?xml version="1.0" encoding="utf-8"?>
<!-- Generator: Adobe Illustrator 21.0.0, SVG Export Plug-In . SVG Version: 6.00 Build 0)  -->
<svg version="1.1" id="Layer_1" xmlns="http://www.w3.org/2000/svg" xmlns:xlink="http://www.w3.org/1999/xlink" x="0px" y="0px"
	 viewBox="0 0 18 20" style="enable-background:new 0 0 18 20;" xml:space="preserve">
<style type="text/css">
	.st0{fill:#FFFFFF;}
</style>
<path id="playericon" class="st0" d="M15.3,20H2.7C-0.3,20,0,15.6,0,15.6C1.3,6.5,5.4,10,5.4,10C6.5,10.9,9,10.9,9,10.9l1.8-0.2
	c0.7-0.1,1.3-0.4,1.8-0.9c0,0,4.1-3.6,5.4,5.7C18,15.4,18.4,20,15.3,20z M9,9.1C6.5,9.1,4.5,6.8,4.5,4s2-4,4.5-4s4.5,1.2,4.5,4
	S11.5,9.1,9,9.1z"/>
</svg>
