<?xml version="1.0" encoding="utf-8"?>
<!-- Generator: Adobe Illustrator 21.0.0, SVG Export Plug-In . SVG Version: 6.00 Build 0)  -->
<svg version="1.1" id="Layer_1" xmlns="http://www.w3.org/2000/svg" xmlns:xlink="http://www.w3.org/1999/xlink" x="0px" y="0px"
	 viewBox="0 0 36 28" style="enable-background:new 0 0 36 28;" xml:space="preserve">
<style type="text/css">
	.st0{fill:#FFFFFF;}
	.st1{opacity:0.5;fill:#C2C2C2;enable-background:new    ;}
</style>
<path id="crown" class="st0" d="M36,6l-0.9,13c0,0-2.4,3-17.1,3S0.9,19,0.9,19L0,6l7.6,7v2L18,0l10.4,15v-2L36,6z M18,8
	c-1,0-2.9,2.8-2.9,4c0.3,1.5,1.4,2.6,2.9,3c1.5-0.4,2.6-1.5,2.9-3C20.9,10.8,19,8,18,8z M18,25c0,0,13.6,0,16.6-3.4l0.4,0.4v1
	l-0.9,2l-0.9,1C26.9,28.3,18,28,18,28s-8.9,0.3-15.2-2l-0.9-1l-0.9-2v-1l0.4-0.4C4.4,25,18,25,18,25z"/>
<path id="transparent" class="st1" d="M31.3,8.7L29.4,5l-3.8,2.5l2.4,4.5L31.3,8.7z M4.7,8.7L6.6,5l3.8,2.5L8.1,12L4.7,8.7z"/>
</svg>
